<?xml version="1.0" encoding="UTF-8"?>
<!DOCTYPE svg PUBLIC "-//W3C//DTD SVG 1.1//EN" "http://www.w3.org/Graphics/SVG/1.1/DTD/svg11.dtd">
<svg xmlns="http://www.w3.org/2000/svg" version="1.1" width="461px" height="395px" style="shape-rendering:geometricPrecision; text-rendering:geometricPrecision; image-rendering:optimizeQuality; fill-rule:evenodd; clip-rule:evenodd" xmlns:xlink="http://www.w3.org/1999/xlink">
<g><path style="opacity:1" fill="#fefefe" d="M -0.5,-0.5 C 153.167,-0.5 306.833,-0.5 460.5,-0.5C 460.5,131.167 460.5,262.833 460.5,394.5C 306.833,394.5 153.167,394.5 -0.5,394.5C -0.5,262.833 -0.5,131.167 -0.5,-0.5 Z"/></g>
<g><path style="opacity:1" fill="#35a93c" d="M 95.5,13.5 C 96.2178,15.1368 96.3845,16.8034 96,18.5C 93.1574,21.1627 89.9907,23.1627 86.5,24.5C 81.1667,24.5 75.8333,24.5 70.5,24.5C 67.5155,23.2517 64.6822,21.585 62,19.5C 61.5065,17.8659 61.3398,16.1992 61.5,14.5C 62.343,12.8267 63.6763,11.66 65.5,11C 73.7161,8.09707 82.0494,7.76374 90.5,10C 92.3231,10.9973 93.9897,12.1639 95.5,13.5 Z"/></g>
<g><path style="opacity:1" fill="#5178a0" d="M 329.5,14.5 C 328.202,19.1316 325.202,22.1316 320.5,23.5C 313.426,23.839 306.426,23.339 299.5,22C 295.993,20.6704 294.327,18.1704 294.5,14.5C 295.716,12.5491 297.382,11.0491 299.5,10C 306.452,8.60318 313.452,8.26985 320.5,9C 324.181,9.87221 327.181,11.7055 329.5,14.5 Z"/></g>
<g><path style="opacity:1" fill="#448444" d="M 61.5,14.5 C 61.3398,16.1992 61.5065,17.8659 62,19.5C 64.6822,21.585 67.5155,23.2517 70.5,24.5C 65.8529,24.4286 62.3529,22.4286 60,18.5C 59.5172,19.448 59.3505,20.448 59.5,21.5C 59.5,25.5 59.5,29.5 59.5,33.5C 58.3483,28.0154 58.1816,22.3487 59,16.5C 59.7083,15.6195 60.5416,14.9528 61.5,14.5 Z"/></g>
<g><path style="opacity:1" fill="#40658c" d="M 294.5,14.5 C 294.327,18.1704 295.993,20.6704 299.5,22C 306.426,23.339 313.426,23.839 320.5,23.5C 325.202,22.1316 328.202,19.1316 329.5,14.5C 330.674,15.5137 331.34,16.847 331.5,18.5C 330.776,22.3653 330.109,26.3653 329.5,30.5C 329.863,31.1835 330.196,31.8501 330.5,32.5C 325.078,37.1103 318.745,39.1103 311.5,38.5C 304.568,38.8511 298.234,37.1844 292.5,33.5C 292.334,27.4908 292.501,21.4908 293,15.5C 293.383,14.944 293.883,14.6107 294.5,14.5 Z"/></g>
<g><path style="opacity:1" fill="#5284b8" d="M 320.5,23.5 C 321.873,23.3433 323.207,23.51 324.5,24C 317.379,26.4596 310.045,27.1263 302.5,26C 298.828,25.1687 295.828,23.3354 293.5,20.5C 293.667,20.1667 293.833,19.8333 294,19.5C 295.952,21.8936 298.452,23.3936 301.5,24C 308.014,24.82 314.347,24.6533 320.5,23.5 Z"/></g>
<g><path style="opacity:1" fill="#2f9b36" d="M 70.5,24.5 C 75.8333,24.5 81.1667,24.5 86.5,24.5C 90.6954,24.3192 94.1954,22.6525 97,19.5C 97.1626,21.3867 96.3293,22.8867 94.5,24C 91.846,24.9406 89.1794,25.7739 86.5,26.5C 76.7546,28.5502 67.7546,26.8835 59.5,21.5C 59.3505,20.448 59.5172,19.448 60,18.5C 62.3529,22.4286 65.8529,24.4286 70.5,24.5 Z"/></g>
<g><path style="opacity:1" fill="#2a8a30" d="M 59.5,21.5 C 67.7546,26.8835 76.7546,28.5502 86.5,26.5C 89.0044,27.6022 91.5044,27.2688 94,25.5C 94.2463,28.8897 94.7463,32.223 95.5,35.5C 94.0878,36.8064 92.4211,37.6397 90.5,38C 83.5667,39.5058 76.5667,39.8391 69.5,39C 65.6891,37.9301 62.3557,36.0967 59.5,33.5C 59.5,29.5 59.5,25.5 59.5,21.5 Z"/></g>
<g><path style="opacity:1" fill="#2c4660" d="M 330.5,32.5 C 330.5,33.1667 330.5,33.8333 330.5,34.5C 328.612,35.9397 326.945,37.6064 325.5,39.5C 324.707,39.0688 323.873,38.7355 323,38.5C 315.494,41.1283 307.994,41.1283 300.5,38.5C 299.537,38.9698 299.537,39.6365 300.5,40.5C 297.944,39.4566 295.777,37.7899 294,35.5C 293.768,36.7375 293.268,37.7375 292.5,38.5C 292.5,36.8333 292.5,35.1667 292.5,33.5C 298.234,37.1844 304.568,38.8511 311.5,38.5C 318.745,39.1103 325.078,37.1103 330.5,32.5 Z"/></g>
<g><path style="opacity:1" fill="#267429" d="M 60.5,72.5 C 59.5386,70.7354 59.2053,68.7354 59.5,66.5C 59.5,64.8333 59.5,63.1667 59.5,61.5C 59.5,59.1667 59.5,56.8333 59.5,54.5C 61.533,64.5353 67.033,72.202 76,77.5C 82.9391,74.561 87.9391,69.561 91,62.5C 91.9065,57.3379 92.7399,52.1713 93.5,47C 92.7106,44.5716 91.3773,44.0716 89.5,45.5C 80.116,47.4978 71.116,46.4978 62.5,42.5C 62.56,41.9569 62.8933,41.6236 63.5,41.5C 67.196,43.7323 71.196,44.7323 75.5,44.5C 84.0233,45.2333 91.19,42.5666 97,36.5C 97.7112,38.3668 97.2112,39.8668 95.5,41C 96.6241,41.8388 97.2908,43.0055 97.5,44.5C 97.082,55.8398 94.9153,66.8398 91,77.5C 82.4954,88.013 73.8287,88.013 65,77.5C 64,75.5 63,73.5 62,71.5C 61.6174,72.056 61.1174,72.3893 60.5,72.5 Z"/></g>
<g><path style="opacity:1" fill="#426b95" d="M 297.5,41.5 C 298.347,42.9663 299.68,43.7996 301.5,44C 306.118,44.994 310.785,45.494 315.5,45.5C 313.831,55.9438 312.665,66.6105 312,77.5C 309.622,84.1265 305.788,85.1265 300.5,80.5C 298.837,77.3439 297.67,74.0106 297,70.5C 296.202,64.0228 295.702,57.5228 295.5,51C 295.515,47.4242 296.182,44.2575 297.5,41.5 Z"/></g>
<g><path style="opacity:1" fill="#28802e" d="M 59.5,35.5 C 61.8138,37.4773 64.1472,39.4773 66.5,41.5C 66.8333,40.8333 67.1667,40.1667 67.5,39.5C 71.0274,40.8782 74.6941,41.5449 78.5,41.5C 82.9173,41.1366 87.2506,40.6366 91.5,40C 86.1421,41.8252 80.8087,43.3252 75.5,44.5C 71.196,44.7323 67.196,43.7323 63.5,41.5C 62.8933,41.6236 62.56,41.9569 62.5,42.5C 60.3956,51.4163 62.3956,59.4163 68.5,66.5C 75.5527,71.7796 81.386,70.4462 86,62.5C 88.5189,57.1104 89.6856,51.4438 89.5,45.5C 91.3773,44.0716 92.7106,44.5716 93.5,47C 92.7399,52.1713 91.9065,57.3379 91,62.5C 87.9391,69.561 82.9391,74.561 76,77.5C 67.033,72.202 61.533,64.5353 59.5,54.5C 59.5,48.1667 59.5,41.8333 59.5,35.5 Z"/></g>
<g><path style="opacity:1" fill="#3f648a" d="M 300.5,40.5 C 299.791,41.404 298.791,41.7373 297.5,41.5C 296.182,44.2575 295.515,47.4242 295.5,51C 295.702,57.5228 296.202,64.0228 297,70.5C 297.67,74.0106 298.837,77.3439 300.5,80.5C 305.788,85.1265 309.622,84.1265 312,77.5C 312.665,66.6105 313.831,55.9438 315.5,45.5C 318.128,44.5405 320.794,44.0405 323.5,44C 322.802,51.6228 322.135,59.2895 321.5,67C 320.611,75.9529 317.611,84.4529 312.5,92.5C 310.233,93.2707 308.4,94.6041 307,96.5C 306.055,96.0946 305.388,95.428 305,94.5C 304.667,95.5 304.333,96.5 304,97.5C 301.37,92.2392 298.703,86.9059 296,81.5C 295.138,75.0227 294.305,68.6894 293.5,62.5C 293.698,54.4659 293.365,46.4659 292.5,38.5C 293.268,37.7375 293.768,36.7375 294,35.5C 295.777,37.7899 297.944,39.4566 300.5,40.5 Z"/></g>
<g><path style="opacity:1" fill="#266c29" d="M 95.5,13.5 C 96.7942,14.2899 97.9609,15.2899 99,16.5C 98.8606,28.7503 99.0273,41.0837 99.5,53.5C 99.3182,62.6626 97.8182,71.6626 95,80.5C 90.0582,90.7185 82.2249,93.8852 71.5,90C 66.1622,87.5019 62.4955,83.6686 60.5,78.5C 60.5,76.5 60.5,74.5 60.5,72.5C 61.1174,72.3893 61.6174,72.056 62,71.5C 63,73.5 64,75.5 65,77.5C 73.8287,88.013 82.4954,88.013 91,77.5C 94.9153,66.8398 97.082,55.8398 97.5,44.5C 97.2908,43.0055 96.6241,41.8388 95.5,41C 97.2112,39.8668 97.7112,38.3668 97,36.5C 91.19,42.5666 84.0233,45.2333 75.5,44.5C 80.8087,43.3252 86.1421,41.8252 91.5,40C 87.2506,40.6366 82.9173,41.1366 78.5,41.5C 74.6941,41.5449 71.0274,40.8782 67.5,39.5C 67.1667,40.1667 66.8333,40.8333 66.5,41.5C 64.1472,39.4773 61.8138,37.4773 59.5,35.5C 59.5,34.8333 59.5,34.1667 59.5,33.5C 62.3557,36.0967 65.6891,37.9301 69.5,39C 76.5667,39.8391 83.5667,39.5058 90.5,38C 92.4211,37.6397 94.0878,36.8064 95.5,35.5C 94.7463,32.223 94.2463,28.8897 94,25.5C 91.5044,27.2688 89.0044,27.6022 86.5,26.5C 89.1794,25.7739 91.846,24.9406 94.5,24C 96.3293,22.8867 97.1626,21.3867 97,19.5C 94.1954,22.6525 90.6954,24.3192 86.5,24.5C 89.9907,23.1627 93.1574,21.1627 96,18.5C 96.3845,16.8034 96.2178,15.1368 95.5,13.5 Z"/></g>
<g><path style="opacity:1" fill="#2a8a31" d="M 62.5,42.5 C 71.116,46.4978 80.116,47.4978 89.5,45.5C 89.6856,51.4438 88.5189,57.1104 86,62.5C 81.386,70.4462 75.5527,71.7796 68.5,66.5C 62.3956,59.4163 60.3956,51.4163 62.5,42.5 Z"/></g>
<g><path style="opacity:1" fill="#8c2022" d="M 59.5,54.5 C 59.5,56.8333 59.5,59.1667 59.5,61.5C 55.8449,60.9673 52.1783,61.4673 48.5,63C 47.2192,65.4033 45.3858,67.2367 43,68.5C 42.3988,70.1368 41.8988,71.8034 41.5,73.5C 43.6881,78.042 46.0215,82.542 48.5,87C 52.1706,89.39 56.1706,90.89 60.5,91.5C 60.585,93.9288 61.585,95.9288 63.5,97.5C 66.7577,98.4173 70.091,98.7507 73.5,98.5C 78.5275,98.4971 83.5275,98.1637 88.5,97.5C 91.0257,97.0809 93.359,96.9142 95.5,97C 96.3041,95.2287 97.4708,93.7287 99,92.5C 99.3333,92.8333 99.6667,93.1667 100,93.5C 103.167,91 106.333,88.5 109.5,86C 112.849,82.4738 114.349,78.3071 114,73.5C 109.867,70.3689 106.034,66.8689 102.5,63C 101.423,62.5304 100.423,62.6971 99.5,63.5C 99.5,60.5 99.5,57.5 99.5,54.5C 106.46,54.9586 113.127,56.2919 119.5,58.5C 110.589,56.2033 109.256,58.5366 115.5,65.5C 123.591,68.2189 125.758,73.5522 122,81.5C 120.421,84.9939 118.587,88.3272 116.5,91.5C 102.724,100.022 87.7238,103.189 71.5,101C 61.8876,99.684 52.8876,96.684 44.5,92C 38.6452,86.7962 34.9786,80.2962 33.5,72.5C 33.6812,67.2958 36.0145,63.4625 40.5,61C 37.9671,61.6111 35.3004,62.1111 32.5,62.5C 35.4026,60.3523 38.7359,58.8523 42.5,58C 48.1397,56.6388 53.8063,55.4721 59.5,54.5 Z"/></g>
<g><path style="opacity:1" fill="#3b5d7f" d="M 330.5,34.5 C 330.5,53.8333 330.5,73.1667 330.5,92.5C 329.532,90.3926 329.198,88.0593 329.5,85.5C 328.448,85.3505 327.448,85.5172 326.5,86C 324.451,88.5934 322.285,91.0934 320,93.5C 319.667,95.8333 319.333,98.1667 319,100.5C 317.185,102.1 316.018,104.1 315.5,106.5C 311.083,107.87 306.75,107.703 302.5,106C 302.957,105.586 303.291,105.086 303.5,104.5C 300.138,101.631 297.972,97.9647 297,93.5C 297.992,96.5698 297.659,99.5698 296,102.5C 294.795,98.1936 294.128,97.8603 294,101.5C 294.465,102.931 295.299,104.097 296.5,105C 298.727,105.941 300.727,107.108 302.5,108.5C 299.477,108.105 298.477,109.105 299.5,111.5C 306.383,113.966 313.383,114.133 320.5,112C 321.833,111.333 321.833,110.667 320.5,110C 319.552,109.517 318.552,109.351 317.5,109.5C 325.283,108.949 330.45,104.949 333,97.5C 335.972,100.811 336.305,104.477 334,108.5C 330.842,111.219 327.342,113.386 323.5,115C 315.833,115.667 308.167,115.667 300.5,115C 296.759,113.262 293.592,110.762 291,107.5C 290.333,104.833 290.333,102.167 291,99.5C 292.481,98.5291 293.315,97.1958 293.5,95.5C 293.692,90.6507 293.692,85.6507 293.5,80.5C 286.806,81.4224 280.472,83.4224 274.5,86.5C 274.325,83.6711 275.658,82.0045 278.5,81.5C 278,81.1667 277.5,80.8333 277,80.5C 273.256,82.1367 269.423,83.4701 265.5,84.5C 273.948,79.1296 283.281,76.1296 293.5,75.5C 293.5,71.1667 293.5,66.8333 293.5,62.5C 294.305,68.6894 295.138,75.0227 296,81.5C 298.703,86.9059 301.37,92.2392 304,97.5C 304.333,96.5 304.667,95.5 305,94.5C 305.388,95.428 306.055,96.0946 307,96.5C 308.4,94.6041 310.233,93.2707 312.5,92.5C 317.611,84.4529 320.611,75.9529 321.5,67C 322.135,59.2895 322.802,51.6228 323.5,44C 320.794,44.0405 318.128,44.5405 315.5,45.5C 310.785,45.494 306.118,44.994 301.5,44C 299.68,43.7996 298.347,42.9663 297.5,41.5C 298.791,41.7373 299.791,41.404 300.5,40.5C 299.537,39.6365 299.537,38.9698 300.5,38.5C 307.994,41.1283 315.494,41.1283 323,38.5C 323.873,38.7355 324.707,39.0688 325.5,39.5C 326.945,37.6064 328.612,35.9397 330.5,34.5 Z"/></g>
<g><path style="opacity:1" fill="#9d2427" d="M 119.5,58.5 C 124.426,59.9647 129.093,61.9647 133.5,64.5C 132.691,65.4687 131.691,66.3021 130.5,67C 132.481,67.6054 132.815,68.6054 131.5,70C 132.749,71.8241 133.915,71.6574 135,69.5C 135.773,72.2114 136.94,74.7114 138.5,77C 136.838,81.1623 134.838,84.9957 132.5,88.5C 129.003,89.0597 126.503,91.0597 125,94.5C 124.667,94.1667 124.333,93.8333 124,93.5C 121.821,96.0109 119.321,98.1776 116.5,100C 96.1321,107.699 75.4654,108.532 54.5,102.5C 53.8333,102.833 53.1667,103.167 52.5,103.5C 42.9097,99.7853 33.743,95.452 25,90.5C 22.2385,84.7872 21.7385,78.7872 23.5,72.5C 23.4146,70.6672 22.7479,69.3339 21.5,68.5C 24.7214,65.7219 28.3881,63.7219 32.5,62.5C 35.3004,62.1111 37.9671,61.6111 40.5,61C 36.0145,63.4625 33.6812,67.2958 33.5,72.5C 34.9786,80.2962 38.6452,86.7962 44.5,92C 52.8876,96.684 61.8876,99.684 71.5,101C 87.7238,103.189 102.724,100.022 116.5,91.5C 118.587,88.3272 120.421,84.9939 122,81.5C 125.758,73.5522 123.591,68.2189 115.5,65.5C 109.256,58.5366 110.589,56.2033 119.5,58.5 Z"/></g>
<g><path style="opacity:1" fill="#681819" d="M 59.5,66.5 C 59.2053,68.7354 59.5386,70.7354 60.5,72.5C 60.5,74.5 60.5,76.5 60.5,78.5C 60.5,82.5 60.5,86.5 60.5,90.5C 59.8365,88.9581 59.1698,87.2914 58.5,85.5C 53.8942,82.7985 50.5609,78.9652 48.5,74C 50.6343,70.1561 53.801,67.3228 58,65.5C 58.3826,66.056 58.8826,66.3893 59.5,66.5 Z"/></g>
<g><path style="opacity:1" fill="#781b1d" d="M 88.5,97.5 C 92.7907,96.5427 96.2907,94.2094 99,90.5C 99.4998,81.5062 99.6664,72.5062 99.5,63.5C 100.423,62.6971 101.423,62.5304 102.5,63C 106.034,66.8689 109.867,70.3689 114,73.5C 114.349,78.3071 112.849,82.4738 109.5,86C 106.333,88.5 103.167,91 100,93.5C 99.6667,93.1667 99.3333,92.8333 99,92.5C 97.4708,93.7287 96.3041,95.2287 95.5,97C 93.359,96.9142 91.0257,97.0809 88.5,97.5 Z"/></g>
<g><path style="opacity:1" fill="#1f581f" d="M 99.5,53.5 C 99.5,53.8333 99.5,54.1667 99.5,54.5C 99.5,57.5 99.5,60.5 99.5,63.5C 99.6664,72.5062 99.4998,81.5062 99,90.5C 96.2907,94.2094 92.7907,96.5427 88.5,97.5C 83.5275,98.1637 78.5275,98.4971 73.5,98.5C 68.0851,97.6243 63.7518,94.9577 60.5,90.5C 60.5,86.5 60.5,82.5 60.5,78.5C 62.4955,83.6686 66.1622,87.5019 71.5,90C 82.2249,93.8852 90.0582,90.7185 95,80.5C 97.8182,71.6626 99.3182,62.6626 99.5,53.5 Z"/></g>
<g><path style="opacity:1" fill="#aa272a" d="M 133.5,64.5 C 144.446,69.2696 151.112,77.4363 153.5,89C 153.212,91.187 152.878,93.3537 152.5,95.5C 145.266,108.534 134.266,117.034 119.5,121C 110.674,123.777 101.674,125.611 92.5,126.5C 89.8333,126.5 87.1667,126.5 84.5,126.5C 77.8333,126.5 71.1667,126.5 64.5,126.5C 48.4278,125.069 33.4278,120.402 19.5,112.5C 16.8712,109.369 14.0379,106.369 11,103.5C 9.45406,100.408 7.95406,97.4081 6.5,94.5C 6.32597,82.848 11.326,74.1814 21.5,68.5C 22.7479,69.3339 23.4146,70.6672 23.5,72.5C 21.7385,78.7872 22.2385,84.7872 25,90.5C 33.743,95.452 42.9097,99.7853 52.5,103.5C 53.1667,103.167 53.8333,102.833 54.5,102.5C 75.4654,108.532 96.1321,107.699 116.5,100C 119.321,98.1776 121.821,96.0109 124,93.5C 124.333,93.8333 124.667,94.1667 125,94.5C 126.503,91.0597 129.003,89.0597 132.5,88.5C 134.838,84.9957 136.838,81.1623 138.5,77C 136.94,74.7114 135.773,72.2114 135,69.5C 133.915,71.6574 132.749,71.8241 131.5,70C 132.815,68.6054 132.481,67.6054 130.5,67C 131.691,66.3021 132.691,65.4687 133.5,64.5 Z"/></g>
<g><path style="opacity:1" fill="#7b1c1e" d="M 59.5,61.5 C 59.5,63.1667 59.5,64.8333 59.5,66.5C 58.8826,66.3893 58.3826,66.056 58,65.5C 53.801,67.3228 50.6343,70.1561 48.5,74C 50.5609,78.9652 53.8942,82.7985 58.5,85.5C 59.1698,87.2914 59.8365,88.9581 60.5,90.5C 63.7518,94.9577 68.0851,97.6243 73.5,98.5C 70.091,98.7507 66.7577,98.4173 63.5,97.5C 61.585,95.9288 60.585,93.9288 60.5,91.5C 56.1706,90.89 52.1706,89.39 48.5,87C 46.0215,82.542 43.6881,78.042 41.5,73.5C 41.8988,71.8034 42.3988,70.1368 43,68.5C 45.3858,67.2367 47.2192,65.4033 48.5,63C 52.1783,61.4673 55.8449,60.9673 59.5,61.5 Z"/></g>
<g><path style="opacity:1" fill="#5c6d82" d="M 331.5,18.5 C 331.5,37.1667 331.5,55.8333 331.5,74.5C 336.375,75.0848 341.042,76.0848 345.5,77.5C 340.819,77.3314 336.152,76.9981 331.5,76.5C 331.5,77.5 331.5,78.5 331.5,79.5C 331.989,86.6249 331.656,90.9582 330.5,92.5C 330.5,73.1667 330.5,53.8333 330.5,34.5C 330.5,33.8333 330.5,33.1667 330.5,32.5C 330.196,31.8501 329.863,31.1835 329.5,30.5C 330.109,26.3653 330.776,22.3653 331.5,18.5 Z"/></g>
<g><path style="opacity:1" fill="#33506d" d="M 331.5,79.5 C 343.072,81.2889 353.405,85.7889 362.5,93C 358.853,91.3364 355.187,89.3364 351.5,87C 348.911,85.6859 346.244,85.0192 343.5,85C 346.417,86.5275 349.417,87.8608 352.5,89C 355.277,93.2849 358.277,97.4516 361.5,101.5C 361.333,101.833 361.167,102.167 361,102.5C 359,99.3343 356.5,96.6676 353.5,94.5C 350.105,91.3019 346.105,89.4685 341.5,89C 348.623,93.1011 349.289,98.2678 343.5,104.5C 341.144,106.69 338.644,108.69 336,110.5C 335.667,110.167 335.333,109.833 335,109.5C 325.382,118.357 314.215,120.857 301.5,117C 295.833,114 290.167,111 284.5,108C 280.115,104.07 277.115,99.2367 275.5,93.5C 279.981,88.9279 281.814,89.5946 281,95.5C 282.608,99.0427 284.942,102.043 288,104.5C 288.533,100.609 290.366,97.6091 293.5,95.5C 293.315,97.1958 292.481,98.5291 291,99.5C 290.333,102.167 290.333,104.833 291,107.5C 293.592,110.762 296.759,113.262 300.5,115C 308.167,115.667 315.833,115.667 323.5,115C 327.342,113.386 330.842,111.219 334,108.5C 336.305,104.477 335.972,100.811 333,97.5C 330.45,104.949 325.283,108.949 317.5,109.5C 312.438,109.726 307.438,109.392 302.5,108.5C 300.727,107.108 298.727,105.941 296.5,105C 295.299,104.097 294.465,102.931 294,101.5C 294.128,97.8603 294.795,98.1936 296,102.5C 297.659,99.5698 297.992,96.5698 297,93.5C 297.972,97.9647 300.138,101.631 303.5,104.5C 303.291,105.086 302.957,105.586 302.5,106C 306.75,107.703 311.083,107.87 315.5,106.5C 316.018,104.1 317.185,102.1 319,100.5C 319.333,98.1667 319.667,95.8333 320,93.5C 322.285,91.0934 324.451,88.5934 326.5,86C 327.448,85.5172 328.448,85.3505 329.5,85.5C 329.198,88.0593 329.532,90.3926 330.5,92.5C 331.656,90.9582 331.989,86.6249 331.5,79.5 Z"/></g>
<g><path style="opacity:1" fill="#476e96" d="M 345.5,77.5 C 359.677,80.7153 371.177,88.0487 380,99.5C 380.608,101.154 381.108,102.821 381.5,104.5C 379.716,103.426 378.549,101.76 378,99.5C 376.349,101.402 376.016,103.402 377,105.5C 372.279,111.707 367.446,117.707 362.5,123.5C 357.304,127.266 351.637,130.266 345.5,132.5C 345.389,131.883 345.056,131.383 344.5,131C 345.942,130.623 346.942,129.79 347.5,128.5C 349.764,126.686 352.097,124.853 354.5,123C 337.799,132.018 319.799,135.352 300.5,133C 293.677,131.956 287.01,130.623 280.5,129C 281.416,129.278 282.082,129.778 282.5,130.5C 281.262,130.81 281.262,131.31 282.5,132C 294.9,135.678 307.566,137.511 320.5,137.5C 304.867,139.011 289.533,137.011 274.5,131.5C 273.305,131.322 272.138,130.989 271,130.5C 270.619,131.482 269.786,132.148 268.5,132.5C 265.383,130.849 262.049,129.682 258.5,129C 252.83,122.012 248.664,114.179 246,105.5C 245.503,108.146 245.336,110.813 245.5,113.5C 245.167,113.5 244.833,113.5 244.5,113.5C 243.53,107.134 245.03,101.467 249,96.5C 253.585,91.1352 259.085,87.1352 265.5,84.5C 269.423,83.4701 273.256,82.1367 277,80.5C 277.5,80.8333 278,81.1667 278.5,81.5C 275.658,82.0045 274.325,83.6711 274.5,86.5C 266.6,90.2315 260.433,95.8982 256,103.5C 255.333,107.5 255.333,111.5 256,115.5C 256.383,116.056 256.883,116.389 257.5,116.5C 257.981,119.455 259.481,121.789 262,123.5C 261.973,121.583 261.139,119.916 259.5,118.5C 259.585,114.61 259.752,110.61 260,106.5C 260.536,104.131 261.703,102.131 263.5,100.5C 263.833,101 264.167,101.5 264.5,102C 261.728,106.933 261.895,111.767 265,116.5C 262.823,108.55 264.823,101.883 271,96.5C 272.271,106.437 277.771,112.604 287.5,115C 305.714,122.618 323.714,122.285 341.5,114C 349.328,109.457 353.328,102.957 353.5,94.5C 356.5,96.6676 359,99.3343 361,102.5C 361.167,102.167 361.333,101.833 361.5,101.5C 358.277,97.4516 355.277,93.2849 352.5,89C 349.417,87.8608 346.417,86.5275 343.5,85C 346.244,85.0192 348.911,85.6859 351.5,87C 355.187,89.3364 358.853,91.3364 362.5,93C 353.405,85.7889 343.072,81.2889 331.5,79.5C 331.5,78.5 331.5,77.5 331.5,76.5C 336.152,76.9981 340.819,77.3314 345.5,77.5 Z"/></g>
<g><path style="opacity:1" fill="#3d5f82" d="M 353.5,94.5 C 353.328,102.957 349.328,109.457 341.5,114C 323.714,122.285 305.714,122.618 287.5,115C 277.771,112.604 272.271,106.437 271,96.5C 264.823,101.883 262.823,108.55 265,116.5C 261.895,111.767 261.728,106.933 264.5,102C 264.167,101.5 263.833,101 263.5,100.5C 261.703,102.131 260.536,104.131 260,106.5C 259.752,110.61 259.585,114.61 259.5,118.5C 261.139,119.916 261.973,121.583 262,123.5C 259.481,121.789 257.981,119.455 257.5,116.5C 255.383,104.734 259.716,96.0675 270.5,90.5C 272.135,91.3302 273.802,91.4969 275.5,91C 273.158,92.3919 273.158,93.2252 275.5,93.5C 277.115,99.2367 280.115,104.07 284.5,108C 290.167,111 295.833,114 301.5,117C 314.215,120.857 325.382,118.357 335,109.5C 335.333,109.833 335.667,110.167 336,110.5C 338.644,108.69 341.144,106.69 343.5,104.5C 349.289,98.2678 348.623,93.1011 341.5,89C 346.105,89.4685 350.105,91.3019 353.5,94.5 Z"/></g>
<g><path style="opacity:1" fill="#2d4761" d="M 293.5,95.5 C 290.366,97.6091 288.533,100.609 288,104.5C 284.942,102.043 282.608,99.0427 281,95.5C 281.814,89.5946 279.981,88.9279 275.5,93.5C 273.158,93.2252 273.158,92.3919 275.5,91C 273.802,91.4969 272.135,91.3302 270.5,90.5C 259.716,96.0675 255.383,104.734 257.5,116.5C 256.883,116.389 256.383,116.056 256,115.5C 255.333,111.5 255.333,107.5 256,103.5C 260.433,95.8982 266.6,90.2315 274.5,86.5C 280.472,83.4224 286.806,81.4224 293.5,80.5C 293.692,85.6507 293.692,90.6507 293.5,95.5 Z"/></g>
<g><path style="opacity:1" fill="#691819" d="M 152.5,95.5 C 152.666,103.507 152.5,111.507 152,119.5C 151.59,120.901 151.09,122.234 150.5,123.5C 145.814,130.518 139.814,136.185 132.5,140.5C 130.98,133.337 129.98,126.004 129.5,118.5C 117.596,124.234 105.262,126.9 92.5,126.5C 101.674,125.611 110.674,123.777 119.5,121C 134.266,117.034 145.266,108.534 152.5,95.5 Z"/></g>
<g><path style="opacity:1" fill="#5f1517" d="M 19.5,112.5 C 33.4278,120.402 48.4278,125.069 64.5,126.5C 50.1365,126.674 36.4699,123.174 23.5,116C 21.9069,115.051 20.5736,113.885 19.5,112.5 Z"/></g>
<g><path style="opacity:1" fill="#4b76a2" d="M 381.5,104.5 C 381.5,107.167 381.5,109.833 381.5,112.5C 377.884,121.292 371.884,128.125 363.5,133C 349.678,139.995 335.011,143.828 319.5,144.5C 314.167,144.5 308.833,144.5 303.5,144.5C 288.278,143.945 273.944,140.111 260.5,133C 252.957,128.31 247.957,121.81 245.5,113.5C 245.336,110.813 245.503,108.146 246,105.5C 248.664,114.179 252.83,122.012 258.5,129C 262.049,129.682 265.383,130.849 268.5,132.5C 269.786,132.148 270.619,131.482 271,130.5C 272.138,130.989 273.305,131.322 274.5,131.5C 281.862,135.674 289.862,138.174 298.5,139C 318.934,141.698 338.267,138.365 356.5,129C 358.996,127.669 360.996,125.836 362.5,123.5C 367.446,117.707 372.279,111.707 377,105.5C 376.016,103.402 376.349,101.402 378,99.5C 378.549,101.76 379.716,103.426 381.5,104.5 Z"/></g>
<g><path style="opacity:1" fill="#4f7fb1" d="M 302.5,108.5 C 307.438,109.392 312.438,109.726 317.5,109.5C 318.552,109.351 319.552,109.517 320.5,110C 321.833,110.667 321.833,111.333 320.5,112C 313.383,114.133 306.383,113.966 299.5,111.5C 298.477,109.105 299.477,108.105 302.5,108.5 Z"/></g>
<g><path style="opacity:1" fill="#861f21" d="M 6.5,94.5 C 7.95406,97.4081 9.45406,100.408 11,103.5C 14.0379,106.369 16.8712,109.369 19.5,112.5C 20.5736,113.885 21.9069,115.051 23.5,116C 36.4699,123.174 50.1365,126.674 64.5,126.5C 71.1667,126.5 77.8333,126.5 84.5,126.5C 78.6807,127.328 72.6807,127.828 66.5,128C 71.1709,128.538 75.8376,129.038 80.5,129.5C 80.5,136.5 80.5,143.5 80.5,150.5C 83.3854,150.194 86.0521,150.527 88.5,151.5C 78.1482,151.601 67.8149,151.267 57.5,150.5C 40.1063,148.766 25.273,141.766 13,129.5C 12.059,127.273 10.8923,125.273 9.5,123.5C 7.80341,113.972 6.80341,104.305 6.5,94.5 Z"/></g>
<g><path style="opacity:1" fill="#801d1f" d="M 132.5,140.5 C 126.838,143.048 121.171,145.382 115.5,147.5C 107.616,149.481 99.6163,150.814 91.5,151.5C 90.5,151.5 89.5,151.5 88.5,151.5C 86.0521,150.527 83.3854,150.194 80.5,150.5C 80.5,143.5 80.5,136.5 80.5,129.5C 75.8376,129.038 71.1709,128.538 66.5,128C 72.6807,127.828 78.6807,127.328 84.5,126.5C 87.1667,126.5 89.8333,126.5 92.5,126.5C 105.262,126.9 117.596,124.234 129.5,118.5C 129.98,126.004 130.98,133.337 132.5,140.5 Z"/></g>
<g><path style="opacity:1" fill="#33506e" d="M 347.5,128.5 C 326.052,135.677 304.386,136.344 282.5,130.5C 282.082,129.778 281.416,129.278 280.5,129C 287.01,130.623 293.677,131.956 300.5,133C 319.799,135.352 337.799,132.018 354.5,123C 352.097,124.853 349.764,126.686 347.5,128.5 Z"/></g>
<g><path style="opacity:1" fill="#385676" d="M 381.5,112.5 C 382.139,118.334 381.139,123.834 378.5,129C 378.989,130.138 379.322,131.305 379.5,132.5C 379.5,136.175 377.833,138.841 374.5,140.5C 374.498,136.459 373.165,135.792 370.5,138.5C 369.52,141.086 369.187,143.753 369.5,146.5C 368.842,147.398 368.176,148.398 367.5,149.5C 366.502,147.51 365.502,145.51 364.5,143.5C 364.709,142.914 365.043,142.414 365.5,142C 364.002,141.415 363.002,141.915 362.5,143.5C 358.423,145.87 354.09,147.703 349.5,149C 348.62,150.356 348.286,151.856 348.5,153.5C 348.756,155.792 348.423,157.959 347.5,160C 348.078,161.417 349.078,162.25 350.5,162.5C 349.253,165.799 349.253,169.133 350.5,172.5C 349.105,170.946 348.439,171.279 348.5,173.5C 348.59,175.425 349.59,176.592 351.5,177C 348.809,176.946 346.976,178.113 346,180.5C 345.5,179.333 344.667,178.5 343.5,178C 344.399,175.462 344.066,172.962 342.5,170.5C 343.274,169.289 344.107,169.289 345,170.5C 345.333,172.833 345.667,175.167 346,177.5C 347.385,174.586 347.218,171.586 345.5,168.5C 346.631,167.396 347.465,167.729 348,169.5C 348.798,167.741 348.631,166.074 347.5,164.5C 346.449,165.885 345.116,166.885 343.5,167.5C 342.17,165.653 342.503,164.153 344.5,163C 342.806,161.061 340.973,159.228 339,157.5C 337.417,159.911 336.417,162.578 336,165.5C 331.877,162.202 331.377,158.368 334.5,154C 336.814,152.602 339.147,152.435 341.5,153.5C 343.22,151.869 345.22,150.703 347.5,150C 342.215,150.754 336.882,151.588 331.5,152.5C 329.5,152.167 327.5,151.833 325.5,151.5C 325.5,149.833 325.5,148.167 325.5,146.5C 327.527,146.662 329.527,146.495 331.5,146C 330.167,145.833 328.833,145.667 327.5,145.5C 320.518,146.509 313.518,146.675 306.5,146C 311.019,145.825 315.353,145.325 319.5,144.5C 335.011,143.828 349.678,139.995 363.5,133C 371.884,128.125 377.884,121.292 381.5,112.5 Z"/></g>
<g><path style="opacity:1" fill="#416082" d="M 244.5,113.5 C 244.833,113.5 245.167,113.5 245.5,113.5C 247.957,121.81 252.957,128.31 260.5,133C 273.944,140.111 288.278,143.945 303.5,144.5C 299.689,145.645 295.689,145.812 291.5,145C 282.043,142.846 274.709,141.012 269.5,139.5C 269.739,141.467 269.406,143.301 268.5,145C 272.49,147.142 276.49,148.975 280.5,150.5C 264.991,148.143 253.491,140.143 246,126.5C 245.631,122.137 245.131,117.804 244.5,113.5 Z"/></g>
<g><path style="opacity:1" fill="#5183b5" d="M 347.5,128.5 C 346.942,129.79 345.942,130.623 344.5,131C 345.056,131.383 345.389,131.883 345.5,132.5C 337.428,135.314 329.095,136.981 320.5,137.5C 307.566,137.511 294.9,135.678 282.5,132C 281.262,131.31 281.262,130.81 282.5,130.5C 304.386,136.344 326.052,135.677 347.5,128.5 Z"/></g>
<g><path style="opacity:1" fill="#334e69" d="M 362.5,123.5 C 360.996,125.836 358.996,127.669 356.5,129C 338.267,138.365 318.934,141.698 298.5,139C 289.862,138.174 281.862,135.674 274.5,131.5C 289.533,137.011 304.867,139.011 320.5,137.5C 329.095,136.981 337.428,135.314 345.5,132.5C 351.637,130.266 357.304,127.266 362.5,123.5 Z"/></g>
<g><path style="opacity:1" fill="#287129" d="M 150.5,123.5 C 149.207,131.571 145.207,138.071 138.5,143C 133.807,146.212 128.807,148.712 123.5,150.5C 122.687,149.347 121.687,149.347 120.5,150.5C 119.614,149.675 119.281,148.675 119.5,147.5C 118.167,147.5 116.833,147.5 115.5,147.5C 121.171,145.382 126.838,143.048 132.5,140.5C 139.814,136.185 145.814,130.518 150.5,123.5 Z"/></g>
<g><path style="opacity:1" fill="#eeeff0" d="M 362.5,143.5 C 366.066,148.663 364.733,151.663 358.5,152.5C 357.508,152.328 356.842,152.662 356.5,153.5C 353.833,153.5 351.167,153.5 348.5,153.5C 348.286,151.856 348.62,150.356 349.5,149C 354.09,147.703 358.423,145.87 362.5,143.5 Z"/></g>
<g><path style="opacity:1" fill="#406790" d="M 303.5,144.5 C 308.833,144.5 314.167,144.5 319.5,144.5C 315.353,145.325 311.019,145.825 306.5,146C 313.518,146.675 320.518,146.509 327.5,145.5C 328.833,145.667 330.167,145.833 331.5,146C 329.527,146.495 327.527,146.662 325.5,146.5C 325.5,148.167 325.5,149.833 325.5,151.5C 327.5,151.833 329.5,152.167 331.5,152.5C 317.812,155.136 303.979,155.136 290,152.5C 288.93,152.528 288.097,152.861 287.5,153.5C 285.145,152.341 282.812,151.341 280.5,150.5C 276.49,148.975 272.49,147.142 268.5,145C 269.406,143.301 269.739,141.467 269.5,139.5C 274.709,141.012 282.043,142.846 291.5,145C 295.689,145.812 299.689,145.645 303.5,144.5 Z"/></g>
<g><path style="opacity:1" fill="#436990" d="M 379.5,132.5 C 388.355,142.539 394.355,154.205 397.5,167.5C 396.027,168.74 394.36,169.74 392.5,170.5C 391.421,162.915 388.421,156.248 383.5,150.5C 385.976,147.147 385.476,146.814 382,149.5C 379.613,146.29 377.113,143.29 374.5,140.5C 377.833,138.841 379.5,136.175 379.5,132.5 Z"/></g>
<g><path style="opacity:1" fill="#2a8530" d="M 9.5,123.5 C 10.8923,125.273 12.059,127.273 13,129.5C 25.273,141.766 40.1063,148.766 57.5,150.5C 64.1031,151.994 70.9364,152.661 78,152.5C 82.6795,152.499 87.1795,152.166 91.5,151.5C 99.6163,150.814 107.616,149.481 115.5,147.5C 116.833,147.5 118.167,147.5 119.5,147.5C 119.281,148.675 119.614,149.675 120.5,150.5C 121.687,149.347 122.687,149.347 123.5,150.5C 106.356,157.856 88.3559,160.689 69.5,159C 52.807,158.662 37.4737,153.995 23.5,145C 20.3333,141.833 17.1667,138.667 14,135.5C 11.9983,131.658 10.4983,127.658 9.5,123.5 Z"/></g>
<g><path style="opacity:1" fill="#502317" d="M 57.5,150.5 C 67.8149,151.267 78.1482,151.601 88.5,151.5C 89.5,151.5 90.5,151.5 91.5,151.5C 87.1795,152.166 82.6795,152.499 78,152.5C 70.9364,152.661 64.1031,151.994 57.5,150.5 Z"/></g>
<g><path style="opacity:1" fill="#3f668e" d="M 374.5,140.5 C 372.727,141.314 372.227,142.648 373,144.5C 373.718,143.549 374.551,143.383 375.5,144C 377.351,145.684 379.018,147.517 380.5,149.5C 379.758,150.287 378.925,150.953 378,151.5C 377.831,157.859 377.331,164.193 376.5,170.5C 374.953,163.955 373.786,157.288 373,150.5C 372.506,152.134 372.34,153.801 372.5,155.5C 365.965,153.498 365.965,151.165 372.5,148.5C 372.062,147.494 371.396,147.494 370.5,148.5C 369.702,148.043 369.369,147.376 369.5,146.5C 369.187,143.753 369.52,141.086 370.5,138.5C 373.165,135.792 374.498,136.459 374.5,140.5 Z"/></g>
<g><path style="opacity:1" fill="#3a5e82" d="M 358.5,152.5 C 360.321,153.117 362.321,153.284 364.5,153C 361.27,154.308 357.936,155.308 354.5,156C 358.615,156.513 362.449,155.68 366,153.5C 366.483,154.448 366.649,155.448 366.5,156.5C 361.23,156.921 356.063,157.921 351,159.5C 350.5,159.167 350,158.833 349.5,158.5C 350.729,157.719 352.062,157.219 353.5,157C 352.376,156.751 351.376,156.251 350.5,155.5C 352.631,154.831 354.631,154.165 356.5,153.5C 356.842,152.662 357.508,152.328 358.5,152.5 Z"/></g>
<g><path style="opacity:1" fill="#f6f7f8" d="M 352.5,174.5 C 351.167,174.5 350.5,173.833 350.5,172.5C 349.253,169.133 349.253,165.799 350.5,162.5C 355.854,159.829 361.52,158.996 367.5,160C 369.409,164.592 369.743,169.258 368.5,174C 363.177,174.499 357.844,174.666 352.5,174.5 Z"/></g>
<g><path style="opacity:1" fill="#fafbfb" d="M 418.5,272.5 C 417.399,273.8 416.066,274.3 414.5,274C 404.193,263.365 395.026,251.865 387,239.5C 383.868,229.413 382.368,219.079 382.5,208.5C 381.797,199.851 381.464,191.185 381.5,182.5C 380.968,176.031 383.968,172.697 390.5,172.5C 397.507,196.86 404.674,221.193 412,245.5C 414.335,254.504 416.501,263.504 418.5,272.5 Z"/></g>
<g><path style="opacity:1" fill="#355678" d="M 291.5,168.5 C 289.411,164.499 288.078,160.165 287.5,155.5C 289.353,152.978 291.353,152.978 293.5,155.5C 295.174,163.189 297.841,170.522 301.5,177.5C 299.579,178.641 297.579,178.808 295.5,178C 294.243,174.709 292.91,171.542 291.5,168.5 Z"/></g>
<g><path style="opacity:1" fill="#2f4761" d="M 374.5,140.5 C 377.113,143.29 379.613,146.29 382,149.5C 385.476,146.814 385.976,147.147 383.5,150.5C 388.421,156.248 391.421,162.915 392.5,170.5C 394.36,169.74 396.027,168.74 397.5,167.5C 397.5,167.833 397.5,168.167 397.5,168.5C 396.086,170.054 394.419,171.388 392.5,172.5C 402.8,204.701 412.633,237.034 422,269.5C 422.497,271.81 422.663,274.143 422.5,276.5C 425.961,276.854 428.461,275.521 430,272.5C 430.194,276.035 428.36,277.701 424.5,277.5C 420.69,278.024 418.69,276.357 418.5,272.5C 416.501,263.504 414.335,254.504 412,245.5C 404.674,221.193 397.507,196.86 390.5,172.5C 383.968,172.697 380.968,176.031 381.5,182.5C 381.167,182.5 380.833,182.5 380.5,182.5C 380.5,180.167 380.5,177.833 380.5,175.5C 377.5,175.5 374.5,175.5 371.5,175.5C 371.784,177.415 371.451,179.081 370.5,180.5C 370.389,179.883 370.056,179.383 369.5,179C 366.183,178.502 362.85,178.335 359.5,178.5C 357.393,177.532 355.059,177.198 352.5,177.5C 352.5,176.5 352.5,175.5 352.5,174.5C 357.844,174.666 363.177,174.499 368.5,174C 369.743,169.258 369.409,164.592 367.5,160C 361.52,158.996 355.854,159.829 350.5,162.5C 349.078,162.25 348.078,161.417 347.5,160C 348.423,157.959 348.756,155.792 348.5,153.5C 351.167,153.5 353.833,153.5 356.5,153.5C 354.631,154.165 352.631,154.831 350.5,155.5C 351.376,156.251 352.376,156.751 353.5,157C 352.062,157.219 350.729,157.719 349.5,158.5C 350,158.833 350.5,159.167 351,159.5C 356.063,157.921 361.23,156.921 366.5,156.5C 366.649,155.448 366.483,154.448 366,153.5C 362.449,155.68 358.615,156.513 354.5,156C 357.936,155.308 361.27,154.308 364.5,153C 362.321,153.284 360.321,153.117 358.5,152.5C 364.733,151.663 366.066,148.663 362.5,143.5C 363.002,141.915 364.002,141.415 365.5,142C 365.043,142.414 364.709,142.914 364.5,143.5C 365.502,145.51 366.502,147.51 367.5,149.5C 368.176,148.398 368.842,147.398 369.5,146.5C 369.369,147.376 369.702,148.043 370.5,148.5C 371.396,147.494 372.062,147.494 372.5,148.5C 365.965,151.165 365.965,153.498 372.5,155.5C 372.34,153.801 372.506,152.134 373,150.5C 373.786,157.288 374.953,163.955 376.5,170.5C 377.331,164.193 377.831,157.859 378,151.5C 378.925,150.953 379.758,150.287 380.5,149.5C 379.018,147.517 377.351,145.684 375.5,144C 374.551,143.383 373.718,143.549 373,144.5C 372.227,142.648 372.727,141.314 374.5,140.5 Z"/></g>
<g><path style="opacity:1" fill="#46719e" d="M 370.5,156.5 C 371.649,156.791 372.316,157.624 372.5,159C 373.277,164.161 373.944,169.327 374.5,174.5C 373.5,174.5 372.5,174.5 371.5,174.5C 371.208,169.455 370.541,164.455 369.5,159.5C 369.685,158.416 370.018,157.416 370.5,156.5 Z"/></g>
<g><path style="opacity:1" fill="#f0f0f0" d="M 380.5,154.5 C 381.496,154.414 382.329,154.748 383,155.5C 385.321,159.629 387.154,163.963 388.5,168.5C 386.882,170.316 384.882,171.649 382.5,172.5C 381.808,171.975 381.308,171.308 381,170.5C 380.501,165.177 380.334,159.844 380.5,154.5 Z"/></g>
<g><path style="opacity:1" fill="#213244" d="M 350.5,172.5 C 350.5,173.833 351.167,174.5 352.5,174.5C 352.5,175.5 352.5,176.5 352.5,177.5C 355.059,177.198 357.393,177.532 359.5,178.5C 356.881,178.232 354.381,178.565 352,179.5C 351.333,184.167 351.333,188.833 352,193.5C 353.844,196.528 355.678,199.528 357.5,202.5C 356.671,203.332 355.838,202.999 355,201.5C 352.333,196.833 349.667,192.167 347,187.5C 346.252,189.332 345.252,190.999 344,192.5C 344.339,189.953 345.173,187.453 346.5,185C 346.37,183.941 345.87,183.108 345,182.5C 344.098,184.431 342.931,186.097 341.5,187.5C 342.963,184.513 343.297,181.513 342.5,178.5C 342.628,176.345 342.128,174.345 341,172.5C 336.677,168.509 332.677,164.176 329,159.5C 328.187,161.436 327.687,163.436 327.5,165.5C 326.916,168.003 326.249,170.503 325.5,173C 325.978,174.303 326.645,175.469 327.5,176.5C 328.738,179.738 330.404,182.738 332.5,185.5C 330.748,185.418 329.748,186.251 329.5,188C 330.25,190.571 331.583,192.738 333.5,194.5C 333.548,197.292 332.215,199.125 329.5,200C 330.784,200.684 331.951,200.517 333,199.5C 334.333,200.833 335.667,202.167 337,203.5C 337.232,202.263 337.732,201.263 338.5,200.5C 339.167,200.5 339.5,200.167 339.5,199.5C 339.088,202.731 339.588,206.064 341,209.5C 341.939,206.879 342.772,204.212 343.5,201.5C 343.833,201.833 344.167,202.167 344.5,202.5C 343.885,205.039 343.218,207.539 342.5,210C 343.793,210.49 345.127,210.657 346.5,210.5C 346.34,208.801 346.506,207.134 347,205.5C 347.186,208.036 347.686,210.369 348.5,212.5C 349.527,214.194 350.861,215.527 352.5,216.5C 353.403,218.62 354.737,218.954 356.5,217.5C 357.167,217.5 357.833,217.5 358.5,217.5C 357.685,218.837 356.518,219.837 355,220.5C 351.087,218.545 347.754,215.879 345,212.5C 344.5,212.833 344,213.167 343.5,213.5C 344.982,215.483 346.649,217.316 348.5,219C 353.256,221.699 357.589,224.866 361.5,228.5C 355.387,224.938 349.387,221.104 343.5,217C 341.681,216.217 340.348,216.717 339.5,218.5C 349.147,226.148 358.481,234.148 367.5,242.5C 368.895,243.648 368.728,244.648 367,245.5C 358.942,237.606 350.442,230.273 341.5,223.5C 340.682,225.108 340.015,226.775 339.5,228.5C 348.611,236.229 357.945,243.729 367.5,251C 367.272,251.399 366.938,251.565 366.5,251.5C 355.833,243.833 345.167,236.167 334.5,228.5C 332.698,223.943 331.364,219.109 330.5,214C 330.528,212.93 330.861,212.097 331.5,211.5C 332.458,211.953 333.292,212.619 334,213.5C 336.31,209.086 335.31,205.419 331,202.5C 329.961,203.244 329.461,204.244 329.5,205.5C 328.577,206.303 327.577,206.47 326.5,206C 328.421,204.759 328.754,203.259 327.5,201.5C 323.107,202.727 322.774,202.394 326.5,200.5C 327.053,191.927 326.053,183.594 323.5,175.5C 323.5,175.167 323.5,174.833 323.5,174.5C 323.5,173.833 323.5,173.167 323.5,172.5C 324.993,170.089 325.993,167.422 326.5,164.5C 325.479,162.812 324.145,161.479 322.5,160.5C 322.5,158.833 322.5,157.167 322.5,155.5C 318.833,155.5 315.167,155.5 311.5,155.5C 309.914,155.693 308.247,156.027 306.5,156.5C 307.981,157.48 309.315,158.647 310.5,160C 308.953,160.333 307.62,159.833 306.5,158.5C 306.167,159.5 305.833,160.5 305.5,161.5C 305.398,165.425 306.064,169.425 307.5,173.5C 310.274,175.206 311.941,177.206 312.5,179.5C 311.698,178.115 311.031,178.282 310.5,180C 311.651,182.465 312.651,184.965 313.5,187.5C 313.565,187.938 313.399,188.272 313,188.5C 311.933,187.809 310.766,187.309 309.5,187C 311.217,181.378 309.217,179.545 303.5,181.5C 304.485,183.098 304.651,184.765 304,186.5C 303.023,184.26 302.523,181.927 302.5,179.5C 299.873,180.092 297.206,180.425 294.5,180.5C 293.09,176.603 292.09,172.603 291.5,168.5C 292.91,171.542 294.243,174.709 295.5,178C 297.579,178.808 299.579,178.641 301.5,177.5C 297.841,170.522 295.174,163.189 293.5,155.5C 291.353,152.978 289.353,152.978 287.5,155.5C 287.5,154.833 287.5,154.167 287.5,153.5C 288.097,152.861 288.93,152.528 290,152.5C 303.979,155.136 317.812,155.136 331.5,152.5C 336.882,151.588 342.215,150.754 347.5,150C 345.22,150.703 343.22,151.869 341.5,153.5C 339.147,152.435 336.814,152.602 334.5,154C 331.377,158.368 331.877,162.202 336,165.5C 336.417,162.578 337.417,159.911 339,157.5C 340.973,159.228 342.806,161.061 344.5,163C 342.503,164.153 342.17,165.653 343.5,167.5C 345.116,166.885 346.449,165.885 347.5,164.5C 348.631,166.074 348.798,167.741 348,169.5C 347.465,167.729 346.631,167.396 345.5,168.5C 347.218,171.586 347.385,174.586 346,177.5C 345.667,175.167 345.333,172.833 345,170.5C 344.107,169.289 343.274,169.289 342.5,170.5C 344.066,172.962 344.399,175.462 343.5,178C 344.667,178.5 345.5,179.333 346,180.5C 346.976,178.113 348.809,176.946 351.5,177C 349.59,176.592 348.59,175.425 348.5,173.5C 348.439,171.279 349.105,170.946 350.5,172.5 Z"/></g>
<g><path style="opacity:1" fill="#3f668d" d="M 342.5,178.5 C 343.297,181.513 342.963,184.513 341.5,187.5C 340.206,188.29 339.039,189.29 338,190.5C 336.224,187.059 334.057,183.892 331.5,181C 333.33,177.518 335.164,174.018 337,170.5C 338.609,173.407 340.442,176.073 342.5,178.5 Z"/></g>
<g><path style="opacity:1" fill="#3e658b" d="M 327.5,165.5 C 328.533,168.857 330.866,170.857 334.5,171.5C 333.617,174.325 332.45,176.992 331,179.5C 329.961,178.29 328.794,177.29 327.5,176.5C 326.645,175.469 325.978,174.303 325.5,173C 326.249,170.503 326.916,168.003 327.5,165.5 Z"/></g>
<g><path style="opacity:1" fill="#4b79a8" d="M 323.5,172.5 C 323.5,173.167 323.5,173.833 323.5,174.5C 320.447,174.911 317.447,175.577 314.5,176.5C 313.079,172.973 312.412,169.306 312.5,165.5C 315.833,165.5 319.167,165.5 322.5,165.5C 322.198,168.059 322.532,170.393 323.5,172.5 Z"/></g>
<g><path style="opacity:1" fill="#314a65" d="M 311.5,155.5 C 312.095,158.346 312.095,161.346 311.5,164.5C 315.167,164.5 318.833,164.5 322.5,164.5C 322.5,163.167 322.5,161.833 322.5,160.5C 324.145,161.479 325.479,162.812 326.5,164.5C 325.993,167.422 324.993,170.089 323.5,172.5C 322.532,170.393 322.198,168.059 322.5,165.5C 319.167,165.5 315.833,165.5 312.5,165.5C 312.412,169.306 313.079,172.973 314.5,176.5C 317.447,175.577 320.447,174.911 323.5,174.5C 323.5,174.833 323.5,175.167 323.5,175.5C 320.583,176.417 317.583,177.084 314.5,177.5C 314.5,178.833 314.5,180.167 314.5,181.5C 313.5,181.167 312.833,180.5 312.5,179.5C 311.941,177.206 310.274,175.206 307.5,173.5C 306.064,169.425 305.398,165.425 305.5,161.5C 305.833,160.5 306.167,159.5 306.5,158.5C 307.62,159.833 308.953,160.333 310.5,160C 309.315,158.647 307.981,157.48 306.5,156.5C 308.247,156.027 309.914,155.693 311.5,155.5 Z"/></g>
<g><path style="opacity:1" fill="#456e99" d="M 311.5,155.5 C 315.167,155.5 318.833,155.5 322.5,155.5C 322.5,157.167 322.5,158.833 322.5,160.5C 322.5,161.833 322.5,163.167 322.5,164.5C 318.833,164.5 315.167,164.5 311.5,164.5C 312.095,161.346 312.095,158.346 311.5,155.5 Z"/></g>
<g><path style="opacity:1" fill="#315070" d="M 307.5,173.5 C 307.142,175.701 305.808,177.035 303.5,177.5C 300.455,172.077 297.955,166.41 296,160.5C 295.333,158.5 295.333,156.5 296,154.5C 299.076,155.288 302.242,155.788 305.5,156C 304.188,160.803 304.188,165.636 305.5,170.5C 304.975,171.192 304.308,171.692 303.5,172C 304.901,172.41 306.234,172.91 307.5,173.5 Z"/></g>
<g><path style="opacity:1" fill="#fafafa" d="M 359.5,178.5 C 362.85,178.335 366.183,178.502 369.5,179C 370.056,179.383 370.389,179.883 370.5,180.5C 371.506,187.482 371.506,194.482 370.5,201.5C 369.136,203.22 368.136,205.22 367.5,207.5C 366.675,208.386 365.675,208.719 364.5,208.5C 362.192,206.529 359.858,204.529 357.5,202.5C 355.678,199.528 353.844,196.528 352,193.5C 351.333,188.833 351.333,184.167 352,179.5C 354.381,178.565 356.881,178.232 359.5,178.5 Z"/></g>
<g><path style="opacity:1" fill="#e9eaec" d="M 312.5,179.5 C 312.833,180.5 313.5,181.167 314.5,181.5C 314.517,183.565 314.85,185.565 315.5,187.5C 314.833,187.5 314.167,187.5 313.5,187.5C 312.651,184.965 311.651,182.465 310.5,180C 311.031,178.282 311.698,178.115 312.5,179.5 Z"/></g>
<g><path style="opacity:1" fill="#e3e3e4" d="M 332.5,185.5 C 333.3,187.607 333.967,189.774 334.5,192C 334.472,193.07 334.139,193.903 333.5,194.5C 331.583,192.738 330.25,190.571 329.5,188C 329.748,186.251 330.748,185.418 332.5,185.5 Z"/></g>
<g><path style="opacity:1" fill="#48729d" d="M 380.5,182.5 C 380.833,182.5 381.167,182.5 381.5,182.5C 381.464,191.185 381.797,199.851 382.5,208.5C 380.167,208.5 377.833,208.5 375.5,208.5C 376.407,200.208 376.74,191.875 376.5,183.5C 378.099,183.768 379.432,183.434 380.5,182.5 Z"/></g>
<g><path style="opacity:1" fill="#416992" d="M 357.5,202.5 C 359.858,204.529 362.192,206.529 364.5,208.5C 363.178,208.67 362.011,208.337 361,207.5C 360.162,210.852 359.329,214.185 358.5,217.5C 357.833,217.5 357.167,217.5 356.5,217.5C 351.285,207.232 345.285,198.732 338.5,192C 340.141,190.871 341.141,189.371 341.5,187.5C 342.931,186.097 344.098,184.431 345,182.5C 345.87,183.108 346.37,183.941 346.5,185C 345.173,187.453 344.339,189.953 344,192.5C 345.252,190.999 346.252,189.332 347,187.5C 349.667,192.167 352.333,196.833 355,201.5C 355.838,202.999 356.671,203.332 357.5,202.5 Z"/></g>
<g><path style="opacity:1" fill="#456f9b" d="M 368.5,213.5 C 367.5,213.5 366.5,213.5 365.5,213.5C 365.36,211.876 366.027,210.71 367.5,210C 366.263,209.768 365.263,209.268 364.5,208.5C 365.675,208.719 366.675,208.386 367.5,207.5C 368.136,205.22 369.136,203.22 370.5,201.5C 371.915,194.371 372.915,187.038 373.5,179.5C 374.498,188.81 374.832,198.143 374.5,207.5C 373.448,207.351 372.448,207.517 371.5,208C 372.451,208.718 372.617,209.551 372,210.5C 370.482,211.163 369.315,212.163 368.5,213.5 Z"/></g>
<g><path style="opacity:1" fill="#314b66" d="M 342.5,178.5 C 340.442,176.073 338.609,173.407 337,170.5C 335.164,174.018 333.33,177.518 331.5,181C 334.057,183.892 336.224,187.059 338,190.5C 339.039,189.29 340.206,188.29 341.5,187.5C 341.141,189.371 340.141,190.871 338.5,192C 345.285,198.732 351.285,207.232 356.5,217.5C 354.737,218.954 353.403,218.62 352.5,216.5C 353.043,216.44 353.376,216.107 353.5,215.5C 352.197,213.032 350.697,210.699 349,208.5C 348.51,209.793 348.343,211.127 348.5,212.5C 347.686,210.369 347.186,208.036 347,205.5C 346.506,207.134 346.34,208.801 346.5,210.5C 345.127,210.657 343.793,210.49 342.5,210C 343.218,207.539 343.885,205.039 344.5,202.5C 344.167,202.167 343.833,201.833 343.5,201.5C 342.772,204.212 341.939,206.879 341,209.5C 339.588,206.064 339.088,202.731 339.5,199.5C 339.157,197.775 338.157,197.275 336.5,198C 337.381,198.708 338.047,199.542 338.5,200.5C 337.732,201.263 337.232,202.263 337,203.5C 335.667,202.167 334.333,200.833 333,199.5C 331.951,200.517 330.784,200.684 329.5,200C 332.215,199.125 333.548,197.292 333.5,194.5C 334.139,193.903 334.472,193.07 334.5,192C 333.967,189.774 333.3,187.607 332.5,185.5C 330.404,182.738 328.738,179.738 327.5,176.5C 328.794,177.29 329.961,178.29 331,179.5C 332.45,176.992 333.617,174.325 334.5,171.5C 330.866,170.857 328.533,168.857 327.5,165.5C 327.687,163.436 328.187,161.436 329,159.5C 332.677,164.176 336.677,168.509 341,172.5C 342.128,174.345 342.628,176.345 342.5,178.5 Z"/></g>
<g><path style="opacity:1" fill="#e7e8e8" d="M 339.5,199.5 C 339.5,200.167 339.167,200.5 338.5,200.5C 338.047,199.542 337.381,198.708 336.5,198C 338.157,197.275 339.157,197.775 339.5,199.5 Z"/></g>
<g><path style="opacity:1" fill="#365778" d="M 313.5,187.5 C 314.167,187.5 314.833,187.5 315.5,187.5C 315.993,189.806 316.326,192.139 316.5,194.5C 315.761,194.631 315.094,194.464 314.5,194C 315.451,193.282 315.617,192.449 315,191.5C 312.356,193.31 309.856,195.31 307.5,197.5C 309.304,198.768 311.304,199.435 313.5,199.5C 313.98,202.005 314.98,204.338 316.5,206.5C 314.234,207.314 311.9,207.814 309.5,208C 312.513,208.502 315.513,209.002 318.5,209.5C 318.66,211.199 318.494,212.866 318,214.5C 316.612,213.446 315.112,213.28 313.5,214C 314.872,214.402 316.205,214.902 317.5,215.5C 318.305,218.304 318.972,221.138 319.5,224C 318.968,226.02 317.635,226.853 315.5,226.5C 315.072,223.215 314.072,220.215 312.5,217.5C 311.596,216.791 311.263,215.791 311.5,214.5C 309.833,214.5 308.167,214.5 306.5,214.5C 302.692,203.074 298.692,191.74 294.5,180.5C 297.206,180.425 299.873,180.092 302.5,179.5C 302.523,181.927 303.023,184.26 304,186.5C 304.651,184.765 304.485,183.098 303.5,181.5C 309.217,179.545 311.217,181.378 309.5,187C 310.766,187.309 311.933,187.809 313,188.5C 313.399,188.272 313.565,187.938 313.5,187.5 Z"/></g>
<g><path style="opacity:1" fill="#456d96" d="M 397.5,168.5 C 408.561,201.72 418.561,235.386 427.5,269.5C 432.013,269.588 436.013,271.088 439.5,274C 445.78,279.413 450.447,285.913 453.5,293.5C 452.766,294.878 452.099,296.378 451.5,298C 448.591,299.705 445.758,301.539 443,303.5C 442.667,305.5 442.333,307.5 442,309.5C 440.87,304.24 438.703,299.573 435.5,295.5C 432.116,289.277 427.449,284.11 421.5,280C 422.571,279.148 423.571,278.315 424.5,277.5C 428.36,277.701 430.194,276.035 430,272.5C 428.461,275.521 425.961,276.854 422.5,276.5C 422.663,274.143 422.497,271.81 422,269.5C 412.633,237.034 402.8,204.701 392.5,172.5C 394.419,171.388 396.086,170.054 397.5,168.5 Z"/></g>
<g><path style="opacity:1" fill="#eeeeee" d="M 331.5,211.5 C 329.919,209.858 329.253,207.858 329.5,205.5C 329.461,204.244 329.961,203.244 331,202.5C 335.31,205.419 336.31,209.086 334,213.5C 333.292,212.619 332.458,211.953 331.5,211.5 Z"/></g>
<g><path style="opacity:1" fill="#456e99" d="M 323.5,175.5 C 326.053,183.594 327.053,191.927 326.5,200.5C 322.774,202.394 323.107,202.727 327.5,201.5C 328.754,203.259 328.421,204.759 326.5,206C 327.577,206.47 328.577,206.303 329.5,205.5C 329.253,207.858 329.919,209.858 331.5,211.5C 330.861,212.097 330.528,212.93 330.5,214C 331.364,219.109 332.698,223.943 334.5,228.5C 338.569,246.781 343.236,264.781 348.5,282.5C 347.154,284.792 347.488,286.792 349.5,288.5C 351.369,297.177 353.369,305.844 355.5,314.5C 355.918,315.222 356.584,315.722 357.5,316C 356.484,316.519 355.818,317.353 355.5,318.5C 357.794,323.343 356.294,326.009 351,326.5C 349.699,326.361 348.866,325.695 348.5,324.5C 348.186,321.053 347.352,317.72 346,314.5C 345.536,315.094 345.369,315.761 345.5,316.5C 342.025,310.897 338.525,305.231 335,299.5C 334.51,298.207 334.343,296.873 334.5,295.5C 334.953,294.542 335.619,293.708 336.5,293C 335.099,289.576 333.432,286.409 331.5,283.5C 331.489,281.983 330.823,280.816 329.5,280C 332.667,276.167 334.833,276.667 336,281.5C 335.937,278.513 335.103,275.68 333.5,273C 334.768,270.837 334.768,268.67 333.5,266.5C 331.114,255.189 328.114,244.189 324.5,233.5C 324.741,231.102 324.074,229.102 322.5,227.5C 323.215,224.731 322.882,222.064 321.5,219.5C 320.842,216.844 320.175,214.178 319.5,211.5C 319.709,210.006 320.376,208.839 321.5,208C 318.553,207.888 317.22,206.388 317.5,203.5C 324.167,203.167 324.167,202.833 317.5,202.5C 317.227,200.549 317.893,199.049 319.5,198C 318.552,197.517 317.552,197.351 316.5,197.5C 316.5,196.5 316.5,195.5 316.5,194.5C 316.326,192.139 315.993,189.806 315.5,187.5C 314.85,185.565 314.517,183.565 314.5,181.5C 314.5,180.167 314.5,178.833 314.5,177.5C 317.583,177.084 320.583,176.417 323.5,175.5 Z"/></g>
<g><path style="opacity:1" fill="#e5e9ec" d="M 352.5,216.5 C 350.861,215.527 349.527,214.194 348.5,212.5C 348.343,211.127 348.51,209.793 349,208.5C 350.697,210.699 352.197,213.032 353.5,215.5C 353.376,216.107 353.043,216.44 352.5,216.5 Z"/></g>
<g><path style="opacity:1" fill="#4a75a1" d="M 306.5,214.5 C 308.167,214.5 309.833,214.5 311.5,214.5C 311.263,215.791 311.596,216.791 312.5,217.5C 312.692,220.601 313.358,223.601 314.5,226.5C 312.68,227.883 310.68,228.883 308.5,229.5C 307.833,224.5 307.167,219.5 306.5,214.5 Z"/></g>
<g><path style="opacity:1" fill="#eceded" d="M 361.5,228.5 C 362.692,230.113 363.692,231.78 364.5,233.5C 365.696,236.421 366.696,239.421 367.5,242.5C 358.481,234.148 349.147,226.148 339.5,218.5C 340.348,216.717 341.681,216.217 343.5,217C 349.387,221.104 355.387,224.938 361.5,228.5 Z"/></g>
<g><path style="opacity:1" fill="#3f668d" d="M 358.5,217.5 C 359.575,216.438 360.575,216.438 361.5,217.5C 364.11,222.109 367.11,226.442 370.5,230.5C 368.718,231.984 366.718,232.984 364.5,233.5C 363.692,231.78 362.692,230.113 361.5,228.5C 357.589,224.866 353.256,221.699 348.5,219C 346.649,217.316 344.982,215.483 343.5,213.5C 344,213.167 344.5,212.833 345,212.5C 347.754,215.879 351.087,218.545 355,220.5C 356.518,219.837 357.685,218.837 358.5,217.5 Z"/></g>
<g><path style="opacity:1" fill="#e3e8ed" d="M 321.5,219.5 C 322.882,222.064 323.215,224.731 322.5,227.5C 321.527,225.052 321.194,222.385 321.5,219.5 Z"/></g>
<g><path style="opacity:1" fill="#345271" d="M 380.5,182.5 C 379.432,183.434 378.099,183.768 376.5,183.5C 376.74,191.875 376.407,200.208 375.5,208.5C 377.833,208.5 380.167,208.5 382.5,208.5C 382.368,219.079 383.868,229.413 387,239.5C 395.026,251.865 404.193,263.365 414.5,274C 416.066,274.3 417.399,273.8 418.5,272.5C 418.69,276.357 420.69,278.024 424.5,277.5C 423.571,278.315 422.571,279.148 421.5,280C 427.449,284.11 432.116,289.277 435.5,295.5C 432.548,291.881 429.215,288.548 425.5,285.5C 425.323,286.947 424.323,288.281 422.5,289.5C 413.514,284.834 409.181,287.501 409.5,297.5C 409.004,293.514 407.171,290.181 404,287.5C 403.814,290.036 403.314,292.369 402.5,294.5C 402.817,291.428 402.484,288.428 401.5,285.5C 399.477,283.147 397.477,280.814 395.5,278.5C 395.649,277.448 395.483,276.448 395,275.5C 392.554,273.041 390.054,270.708 387.5,268.5C 387.833,268.167 388.167,267.833 388.5,267.5C 391.606,269.952 394.939,271.952 398.5,273.5C 400.294,275.797 402.294,277.963 404.5,280C 405.577,280.47 406.577,280.303 407.5,279.5C 410.824,283.825 415.157,285.325 420.5,284C 418.43,283.052 416.93,281.552 416,279.5C 415.667,279.833 415.333,280.167 415,280.5C 405.992,271.325 396.825,262.325 387.5,253.5C 386.375,251.871 385.041,250.371 383.5,249C 380.303,247.67 377.47,245.836 375,243.5C 375.019,245.107 375.185,246.774 375.5,248.5C 375.5,249.167 375.5,249.833 375.5,250.5C 375.062,250.435 374.728,250.601 374.5,251C 378.032,253.368 381.032,256.202 383.5,259.5C 382.833,259.833 382.167,260.167 381.5,260.5C 379.253,259.594 377.253,258.261 375.5,256.5C 374.893,256.624 374.56,256.957 374.5,257.5C 372.687,264.418 371.353,271.418 370.5,278.5C 370.768,276.901 370.434,275.568 369.5,274.5C 369.766,271.334 370.099,268.167 370.5,265C 370.437,262.719 369.603,260.886 368,259.5C 364.772,277.66 362.939,295.993 362.5,314.5C 361.167,313.833 359.833,313.167 358.5,312.5C 361.725,296.638 363.892,280.638 365,264.5C 359.97,272.344 354.804,280.011 349.5,287.5C 349.343,286.127 349.51,284.793 350,283.5C 355.987,274.872 361.487,265.872 366.5,256.5C 366.376,255.893 366.043,255.56 365.5,255.5C 367.138,254.295 367.471,252.962 366.5,251.5C 366.938,251.565 367.272,251.399 367.5,251C 357.945,243.729 348.611,236.229 339.5,228.5C 340.015,226.775 340.682,225.108 341.5,223.5C 350.442,230.273 358.942,237.606 367,245.5C 368.728,244.648 368.895,243.648 367.5,242.5C 366.696,239.421 365.696,236.421 364.5,233.5C 366.718,232.984 368.718,231.984 370.5,230.5C 367.11,226.442 364.11,222.109 361.5,217.5C 360.575,216.438 359.575,216.438 358.5,217.5C 359.329,214.185 360.162,210.852 361,207.5C 362.011,208.337 363.178,208.67 364.5,208.5C 365.263,209.268 366.263,209.768 367.5,210C 366.027,210.71 365.36,211.876 365.5,213.5C 366.5,213.5 367.5,213.5 368.5,213.5C 369.315,212.163 370.482,211.163 372,210.5C 372.617,209.551 372.451,208.718 371.5,208C 372.448,207.517 373.448,207.351 374.5,207.5C 374.832,198.143 374.498,188.81 373.5,179.5C 372.915,187.038 371.915,194.371 370.5,201.5C 371.506,194.482 371.506,187.482 370.5,180.5C 371.451,179.081 371.784,177.415 371.5,175.5C 374.5,175.5 377.5,175.5 380.5,175.5C 380.5,177.833 380.5,180.167 380.5,182.5 Z"/></g>
<g><path style="opacity:1" fill="#45709b" d="M 368.5,213.5 C 370.679,213.16 372.512,212.16 374,210.5C 374.251,212.433 374.751,214.266 375.5,216C 373.412,217.03 371.245,217.863 369,218.5C 366.141,216.868 365.974,215.202 368.5,213.5 Z"/></g>
<g><path style="opacity:1" fill="#4976a4" d="M 375.5,209.5 C 377.167,209.5 378.833,209.5 380.5,209.5C 379.893,227.91 378.226,227.91 375.5,209.5 Z"/></g>
<g><path style="opacity:1" fill="#293f56" d="M 316.5,194.5 C 316.5,195.5 316.5,196.5 316.5,197.5C 317.552,197.351 318.552,197.517 319.5,198C 317.893,199.049 317.227,200.549 317.5,202.5C 324.167,202.833 324.167,203.167 317.5,203.5C 317.22,206.388 318.553,207.888 321.5,208C 320.376,208.839 319.709,210.006 319.5,211.5C 320.175,214.178 320.842,216.844 321.5,219.5C 321.194,222.385 321.527,225.052 322.5,227.5C 324.074,229.102 324.741,231.102 324.5,233.5C 323.5,233.833 322.833,234.5 322.5,235.5C 321.732,236.263 321.232,237.263 321,238.5C 319.989,237.663 318.822,237.33 317.5,237.5C 315.089,237.137 313.589,238.137 313,240.5C 311.417,238.798 311.917,237.464 314.5,236.5C 315.474,234.257 315.808,231.924 315.5,229.5C 313.379,229.325 311.379,229.659 309.5,230.5C 308.833,230.5 308.5,230.167 308.5,229.5C 310.68,228.883 312.68,227.883 314.5,226.5C 313.358,223.601 312.692,220.601 312.5,217.5C 314.072,220.215 315.072,223.215 315.5,226.5C 317.635,226.853 318.968,226.02 319.5,224C 318.972,221.138 318.305,218.304 317.5,215.5C 316.205,214.902 314.872,214.402 313.5,214C 315.112,213.28 316.612,213.446 318,214.5C 318.494,212.866 318.66,211.199 318.5,209.5C 315.513,209.002 312.513,208.502 309.5,208C 311.9,207.814 314.234,207.314 316.5,206.5C 314.98,204.338 313.98,202.005 313.5,199.5C 311.304,199.435 309.304,198.768 307.5,197.5C 309.856,195.31 312.356,193.31 315,191.5C 315.617,192.449 315.451,193.282 314.5,194C 315.094,194.464 315.761,194.631 316.5,194.5 Z"/></g>
<g><path style="opacity:1" fill="#f9f9f9" d="M 334.5,228.5 C 345.167,236.167 355.833,243.833 366.5,251.5C 367.471,252.962 367.138,254.295 365.5,255.5C 359.583,264.331 353.917,273.331 348.5,282.5C 343.236,264.781 338.569,246.781 334.5,228.5 Z"/></g>
<g><path style="opacity:1" fill="#e8eaed" d="M 324.5,233.5 C 328.114,244.189 331.114,255.189 333.5,266.5C 328.51,256.768 324.843,246.435 322.5,235.5C 322.833,234.5 323.5,233.833 324.5,233.5 Z"/></g>
<g><path style="opacity:1" fill="#334f6c" d="M 322.5,235.5 C 324.843,246.435 328.51,256.768 333.5,266.5C 334.768,268.67 334.768,270.837 333.5,273C 335.103,275.68 335.937,278.513 336,281.5C 334.833,276.667 332.667,276.167 329.5,280C 330.823,280.816 331.489,281.983 331.5,283.5C 328.904,280.766 325.904,280.1 322.5,281.5C 323.335,280.057 324.668,279.057 326.5,278.5C 322.964,268.394 319.131,258.394 315,248.5C 314.163,246.179 313.83,243.845 314,241.5C 318.858,253.873 323.691,266.207 328.5,278.5C 330.332,277.752 331.999,276.752 333.5,275.5C 327.036,263.246 321.702,250.58 317.5,237.5C 318.822,237.33 319.989,237.663 321,238.5C 321.232,237.263 321.732,236.263 322.5,235.5 Z"/></g>
<g><path style="opacity:1" fill="#d9dada" d="M 375.5,250.5 C 375.5,249.833 375.5,249.167 375.5,248.5C 376.423,247.697 377.423,247.53 378.5,248C 379.638,249.734 380.138,251.568 380,253.5C 378.729,252.117 377.229,251.117 375.5,250.5 Z"/></g>
<g><path style="opacity:1" fill="#4b78a7" d="M 317.5,237.5 C 321.702,250.58 327.036,263.246 333.5,275.5C 331.999,276.752 330.332,277.752 328.5,278.5C 323.691,266.207 318.858,253.873 314,241.5C 313.83,243.845 314.163,246.179 315,248.5C 319.131,258.394 322.964,268.394 326.5,278.5C 324.668,279.057 323.335,280.057 322.5,281.5C 319.791,269.005 316.291,256.672 312,244.5C 310.525,239.937 309.692,235.27 309.5,230.5C 311.379,229.659 313.379,229.325 315.5,229.5C 315.808,231.924 315.474,234.257 314.5,236.5C 311.917,237.464 311.417,238.798 313,240.5C 313.589,238.137 315.089,237.137 317.5,237.5 Z"/></g>
<g><path style="opacity:1" fill="#233242" d="M 365.5,255.5 C 366.043,255.56 366.376,255.893 366.5,256.5C 361.487,265.872 355.987,274.872 350,283.5C 349.51,284.793 349.343,286.127 349.5,287.5C 349.5,287.833 349.5,288.167 349.5,288.5C 347.488,286.792 347.154,284.792 348.5,282.5C 353.917,273.331 359.583,264.331 365.5,255.5 Z"/></g>
<g><path style="opacity:1" fill="#253545" d="M 387.5,253.5 C 396.825,262.325 405.992,271.325 415,280.5C 415.333,280.167 415.667,279.833 416,279.5C 416.93,281.552 418.43,283.052 420.5,284C 415.157,285.325 410.824,283.825 407.5,279.5C 405.353,277.263 403.02,275.263 400.5,273.5C 401.847,274.028 403.181,274.195 404.5,274C 401.63,271.921 399.296,269.421 397.5,266.5C 395.821,265.218 393.987,264.218 392,263.5C 391.722,264.416 391.222,265.082 390.5,265.5C 389.624,265.631 388.957,265.298 388.5,264.5C 385.692,259.715 383.025,254.882 380.5,250C 382.55,251.403 384.883,252.57 387.5,253.5 Z"/></g>
<g><path style="opacity:1" fill="#d0d2d5" d="M 386.5,254.5 C 389.297,256.795 391.964,259.295 394.5,262C 390.147,261.486 387.481,258.986 386.5,254.5 Z"/></g>
<g><path style="opacity:1" fill="#f7f7f7" d="M 358.5,312.5 C 358.027,313.906 357.027,314.573 355.5,314.5C 353.369,305.844 351.369,297.177 349.5,288.5C 349.5,288.167 349.5,287.833 349.5,287.5C 354.804,280.011 359.97,272.344 365,264.5C 363.892,280.638 361.725,296.638 358.5,312.5 Z"/></g>
<g><path style="opacity:1" fill="#1a2531" d="M 387.5,253.5 C 384.883,252.57 382.55,251.403 380.5,250C 383.025,254.882 385.692,259.715 388.5,264.5C 388.957,265.298 389.624,265.631 390.5,265.5C 390.414,266.496 390.748,267.329 391.5,268C 394.672,269.697 397.672,271.53 400.5,273.5C 399.833,273.5 399.167,273.5 398.5,273.5C 394.939,271.952 391.606,269.952 388.5,267.5C 388.167,267.833 387.833,268.167 387.5,268.5C 390.054,270.708 392.554,273.041 395,275.5C 395.483,276.448 395.649,277.448 395.5,278.5C 388.167,271.833 381.167,264.833 374.5,257.5C 374.56,256.957 374.893,256.624 375.5,256.5C 377.253,258.261 379.253,259.594 381.5,260.5C 382.167,260.167 382.833,259.833 383.5,259.5C 381.032,256.202 378.032,253.368 374.5,251C 374.728,250.601 375.062,250.435 375.5,250.5C 377.229,251.117 378.729,252.117 380,253.5C 380.138,251.568 379.638,249.734 378.5,248C 377.423,247.53 376.423,247.697 375.5,248.5C 375.185,246.774 375.019,245.107 375,243.5C 377.47,245.836 380.303,247.67 383.5,249C 385.041,250.371 386.375,251.871 387.5,253.5 Z"/></g>
<g><path style="opacity:1" fill="#4977a5" d="M 369.5,274.5 C 367.616,286.782 365.95,299.115 364.5,311.5C 364.36,313.03 363.693,314.03 362.5,314.5C 362.939,295.993 364.772,277.66 368,259.5C 369.603,260.886 370.437,262.719 370.5,265C 370.099,268.167 369.766,271.334 369.5,274.5 Z"/></g>
<g><path style="opacity:1" fill="#3b6086" d="M 400.5,273.5 C 397.672,271.53 394.672,269.697 391.5,268C 390.748,267.329 390.414,266.496 390.5,265.5C 391.222,265.082 391.722,264.416 392,263.5C 393.987,264.218 395.821,265.218 397.5,266.5C 399.296,269.421 401.63,271.921 404.5,274C 403.181,274.195 401.847,274.028 400.5,273.5 Z"/></g>
<g><path style="opacity:1" fill="#dedede" d="M 398.5,273.5 C 399.167,273.5 399.833,273.5 400.5,273.5C 403.02,275.263 405.353,277.263 407.5,279.5C 406.577,280.303 405.577,280.47 404.5,280C 402.294,277.963 400.294,275.797 398.5,273.5 Z"/></g>
<g><path style="opacity:1" fill="#33a63b" d="M 224.5,302.5 C 224.714,304.144 224.38,305.644 223.5,307C 219.882,309.974 215.882,312.141 211.5,313.5C 210.592,310.013 208.926,307.013 206.5,304.5C 201.367,293.362 192.7,287.362 180.5,286.5C 193.805,273.76 206.305,274.76 218,289.5C 221.232,293.298 223.399,297.631 224.5,302.5 Z"/></g>
<g><path style="opacity:1" fill="#4b7098" d="M 331.5,283.5 C 329.396,283.707 327.063,283.874 324.5,284C 325.604,285.802 325.604,287.969 324.5,290.5C 323.087,287.781 322.42,284.781 322.5,281.5C 325.904,280.1 328.904,280.766 331.5,283.5 Z"/></g>
<g><path style="opacity:1" fill="#236b27" d="M 180.5,286.5 C 192.7,287.362 201.367,293.362 206.5,304.5C 210.679,312.391 212.012,320.724 210.5,329.5C 208.821,332.676 206.154,334.343 202.5,334.5C 198.673,333.961 195.006,332.961 191.5,331.5C 195.355,328.64 199.188,325.64 203,322.5C 204.663,319.44 204.83,316.44 203.5,313.5C 203.204,311.597 202.537,309.93 201.5,308.5C 197.798,300.295 191.465,296.462 182.5,297C 179.536,299.81 176.202,301.976 172.5,303.5C 170.252,295.456 172.919,289.789 180.5,286.5 Z"/></g>
<g><path style="opacity:1" fill="#3e5f83" d="M 435.5,295.5 C 438.703,299.573 440.87,304.24 442,309.5C 442.333,307.5 442.667,305.5 443,303.5C 445.758,301.539 448.591,299.705 451.5,298C 452.099,296.378 452.766,294.878 453.5,293.5C 454.942,299.204 454.775,304.87 453,310.5C 447.5,314.667 442,318.833 436.5,323C 430.511,325.334 424.844,324.668 419.5,321C 410.749,314.095 405.083,305.261 402.5,294.5C 403.314,292.369 403.814,290.036 404,287.5C 407.171,290.181 409.004,293.514 409.5,297.5C 411.312,307.311 416.979,313.644 426.5,316.5C 429.574,316.55 431.741,315.217 433,312.5C 433.667,309.5 433.667,306.5 433,303.5C 432.764,301.881 431.931,300.881 430.5,300.5C 430.167,300.5 429.833,300.5 429.5,300.5C 429.5,299.833 429.5,299.167 429.5,298.5C 428.89,296.566 427.89,294.899 426.5,293.5C 425.5,291.833 424.167,290.5 422.5,289.5C 424.323,288.281 425.323,286.947 425.5,285.5C 429.215,288.548 432.548,291.881 435.5,295.5 Z"/></g>
<g><path style="opacity:1" fill="#2a425c" d="M 422.5,289.5 C 424.167,290.5 425.5,291.833 426.5,293.5C 426.063,295.595 427.063,297.262 429.5,298.5C 429.5,299.167 429.5,299.833 429.5,300.5C 425.977,298.523 422.31,298.19 418.5,299.5C 415.656,298.284 413.156,296.617 411,294.5C 411.129,305.1 416.296,311.767 426.5,314.5C 429.224,314.954 431.057,313.954 432,311.5C 432.343,307.715 431.843,304.048 430.5,300.5C 431.931,300.881 432.764,301.881 433,303.5C 433.667,306.5 433.667,309.5 433,312.5C 431.741,315.217 429.574,316.55 426.5,316.5C 416.979,313.644 411.312,307.311 409.5,297.5C 409.181,287.501 413.514,284.834 422.5,289.5 Z"/></g>
<g><path style="opacity:1" fill="#aaabae" d="M 426.5,293.5 C 427.89,294.899 428.89,296.566 429.5,298.5C 427.063,297.262 426.063,295.595 426.5,293.5 Z"/></g>
<g><path style="opacity:1" fill="#a72629" d="M 201.5,308.5 C 201.5,309.833 201.5,311.167 201.5,312.5C 185.849,325.655 169.182,337.322 151.5,347.5C 147.252,340.582 141.919,334.582 135.5,329.5C 148.396,321.559 160.73,312.892 172.5,303.5C 176.202,301.976 179.536,299.81 182.5,297C 191.465,296.462 197.798,300.295 201.5,308.5 Z"/></g>
<g><path style="opacity:1" fill="#345372" d="M 429.5,300.5 C 429.833,300.5 430.167,300.5 430.5,300.5C 431.843,304.048 432.343,307.715 432,311.5C 431.057,313.954 429.224,314.954 426.5,314.5C 416.296,311.767 411.129,305.1 411,294.5C 413.156,296.617 415.656,298.284 418.5,299.5C 422.31,298.19 425.977,298.523 429.5,300.5 Z"/></g>
<g><path style="opacity:1" fill="#ebedef" d="M 334.5,295.5 C 334.343,296.873 334.51,298.207 335,299.5C 338.525,305.231 342.025,310.897 345.5,316.5C 347.386,320.401 346.22,323.068 342,324.5C 338.566,312.863 334.732,301.363 330.5,290C 330.611,288.278 331.111,288.112 332,289.5C 332.24,291.852 333.073,293.852 334.5,295.5 Z"/></g>
<g><path style="opacity:1" fill="#2d4864" d="M 369.5,274.5 C 370.434,275.568 370.768,276.901 370.5,278.5C 368.51,291.086 367.177,303.752 366.5,316.5C 363.887,315.565 361.221,315.398 358.5,316C 360.996,317.08 363.33,318.414 365.5,320C 363.063,319.797 360.729,318.963 358.5,317.5C 359.153,325.991 355.487,328.991 347.5,326.5C 345.969,325.075 346.302,324.409 348.5,324.5C 348.866,325.695 349.699,326.361 351,326.5C 356.294,326.009 357.794,323.343 355.5,318.5C 355.818,317.353 356.484,316.519 357.5,316C 356.584,315.722 355.918,315.222 355.5,314.5C 357.027,314.573 358.027,313.906 358.5,312.5C 359.833,313.167 361.167,313.833 362.5,314.5C 363.693,314.03 364.36,313.03 364.5,311.5C 365.95,299.115 367.616,286.782 369.5,274.5 Z"/></g>
<g><path style="opacity:1" fill="#29852f" d="M 224.5,302.5 C 226.409,306.754 226.742,311.088 225.5,315.5C 223.721,316.67 222.721,318.336 222.5,320.5C 219.543,321.793 216.543,323.126 213.5,324.5C 212.687,320.838 212.021,317.172 211.5,313.5C 215.882,312.141 219.882,309.974 223.5,307C 224.38,305.644 224.714,304.144 224.5,302.5 Z"/></g>
<g><path style="opacity:1" fill="#8c2022" d="M 201.5,312.5 C 202.097,312.735 202.43,313.235 202.5,314C 201.599,317.161 199.599,319.161 196.5,320C 194.954,322.257 193.288,324.424 191.5,326.5C 178.545,334.834 166.212,343.5 154.5,352.5C 154.167,352.5 153.833,352.5 153.5,352.5C 153.5,351.833 153.167,351.5 152.5,351.5C 152.167,350.167 151.833,348.833 151.5,347.5C 169.182,337.322 185.849,325.655 201.5,312.5 Z"/></g>
<g><path style="opacity:1" fill="#1f5822" d="M 206.5,304.5 C 208.926,307.013 210.592,310.013 211.5,313.5C 212.021,317.172 212.687,320.838 213.5,324.5C 216.543,323.126 219.543,321.793 222.5,320.5C 222.721,318.336 223.721,316.67 225.5,315.5C 225.219,317.963 224.219,320.13 222.5,322C 218.598,324.751 214.598,327.251 210.5,329.5C 212.012,320.724 210.679,312.391 206.5,304.5 Z"/></g>
<g><path style="opacity:1" fill="#4975a0" d="M 366.5,316.5 C 366.343,317.873 366.51,319.207 367,320.5C 376.149,327.467 382.316,336.467 385.5,347.5C 380.82,350.95 375.987,354.95 371,359.5C 366.521,345.03 357.687,334.196 344.5,327C 345.448,326.517 346.448,326.351 347.5,326.5C 355.487,328.991 359.153,325.991 358.5,317.5C 360.729,318.963 363.063,319.797 365.5,320C 363.33,318.414 360.996,317.08 358.5,316C 361.221,315.398 363.887,315.565 366.5,316.5 Z"/></g>
<g><path style="opacity:1" fill="#34a73b" d="M 135.5,329.5 C 141.919,334.582 147.252,340.582 151.5,347.5C 151.833,348.833 152.167,350.167 152.5,351.5C 152.719,352.675 152.386,353.675 151.5,354.5C 146.437,357.584 142.103,361.251 138.5,365.5C 135.975,358.43 131.975,352.43 126.5,347.5C 121.831,340.998 115.498,337.331 107.5,336.5C 111.651,333.197 115.985,330.03 120.5,327C 125.796,326.12 130.796,326.953 135.5,329.5 Z"/></g>
<g><path style="opacity:1" fill="#3f5f82" d="M 331.5,283.5 C 333.432,286.409 335.099,289.576 336.5,293C 335.619,293.708 334.953,294.542 334.5,295.5C 333.073,293.852 332.24,291.852 332,289.5C 331.111,288.112 330.611,288.278 330.5,290C 334.732,301.363 338.566,312.863 342,324.5C 346.22,323.068 347.386,320.401 345.5,316.5C 345.369,315.761 345.536,315.094 346,314.5C 347.352,317.72 348.186,321.053 348.5,324.5C 346.302,324.409 345.969,325.075 347.5,326.5C 346.448,326.351 345.448,326.517 344.5,327C 357.687,334.196 366.521,345.03 371,359.5C 375.987,354.95 380.82,350.95 385.5,347.5C 386.974,351.95 386.641,356.284 384.5,360.5C 378.167,365.333 371.833,370.167 365.5,375C 358.99,376.163 353.324,374.496 348.5,370C 337.687,360.545 332.187,348.711 332,334.5C 333.431,331.917 334.598,329.25 335.5,326.5C 332.223,314.339 328.556,302.339 324.5,290.5C 325.604,287.969 325.604,285.802 324.5,284C 327.063,283.874 329.396,283.707 331.5,283.5 Z"/></g>
<g><path style="opacity:1" fill="#771b1d" d="M 201.5,308.5 C 202.537,309.93 203.204,311.597 203.5,313.5C 203.799,315.604 203.466,317.604 202.5,319.5C 196.69,324.902 190.357,329.569 183.5,333.5C 180.767,336.546 177.434,338.88 173.5,340.5C 171.784,343.717 169.117,345.55 165.5,346C 162.333,347.833 159.833,350.333 158,353.5C 156.989,352.663 155.822,352.33 154.5,352.5C 166.212,343.5 178.545,334.834 191.5,326.5C 193.288,324.424 194.954,322.257 196.5,320C 199.599,319.161 201.599,317.161 202.5,314C 202.43,313.235 202.097,312.735 201.5,312.5C 201.5,311.167 201.5,309.833 201.5,308.5 Z"/></g>
<g><path style="opacity:1" fill="#2a8630" d="M 107.5,336.5 C 115.498,337.331 121.831,340.998 126.5,347.5C 131.276,354.052 135.276,361.052 138.5,368.5C 138.726,373.562 138.392,378.562 137.5,383.5C 135.393,385.652 132.726,386.652 129.5,386.5C 122.779,384.885 116.946,381.552 112,376.5C 103.223,366.835 99.223,355.501 100,342.5C 101.63,339.432 104.13,337.432 107.5,336.5 Z"/></g>
<g><path style="opacity:1" fill="#641d1c" d="M 203.5,313.5 C 204.83,316.44 204.663,319.44 203,322.5C 199.188,325.64 195.355,328.64 191.5,331.5C 179.185,340.141 166.851,348.808 154.5,357.5C 154.371,355.784 154.038,354.117 153.5,352.5C 153.833,352.5 154.167,352.5 154.5,352.5C 155.822,352.33 156.989,352.663 158,353.5C 159.833,350.333 162.333,347.833 165.5,346C 169.117,345.55 171.784,343.717 173.5,340.5C 177.434,338.88 180.767,336.546 183.5,333.5C 190.357,329.569 196.69,324.902 202.5,319.5C 203.466,317.604 203.799,315.604 203.5,313.5 Z"/></g>
<g><path style="opacity:1" fill="#2a435c" d="M 350.5,363.5 C 352.607,364.3 354.774,364.967 357,365.5C 358.711,365.561 360.044,364.894 361,363.5C 360.115,360.128 359.449,355.462 359,349.5C 354.398,349.102 349.565,348.602 344.5,348C 342.951,346.786 341.785,345.286 341,343.5C 340.505,346.531 340.671,349.531 341.5,352.5C 338.677,348.68 337.844,344.347 339,339.5C 342.884,335.765 347.051,335.598 351.5,339C 359.523,344.877 363.356,352.711 363,362.5C 360.947,366.292 357.781,367.458 353.5,366C 352.058,365.623 351.058,364.79 350.5,363.5 Z"/></g>
<g><path style="opacity:1" fill="#20200e" d="M 114.5,347.5 C 112.418,347.472 110.584,348.139 109,349.5C 108.502,352.482 108.335,355.482 108.5,358.5C 107.359,355.36 107.192,352.027 108,348.5C 110.109,346.582 112.275,346.249 114.5,347.5 Z"/></g>
<g><path style="opacity:1" fill="#801d1f" d="M 114.5,347.5 C 115.609,347.557 116.609,347.89 117.5,348.5C 117.973,349.906 118.973,350.573 120.5,350.5C 122.167,351.5 123.5,352.833 124.5,354.5C 124.427,356.027 125.094,357.027 126.5,357.5C 126.427,359.027 127.094,360.027 128.5,360.5C 129.982,365.015 130.648,369.681 130.5,374.5C 128.685,375.63 126.685,376.296 124.5,376.5C 122.544,375.508 120.544,374.508 118.5,373.5C 117.5,371.833 116.167,370.5 114.5,369.5C 113.5,369.167 112.833,368.5 112.5,367.5C 112.573,365.973 111.906,364.973 110.5,364.5C 109.27,362.703 108.604,360.703 108.5,358.5C 108.335,355.482 108.502,352.482 109,349.5C 110.584,348.139 112.418,347.472 114.5,347.5 Z"/></g>
<g><path style="opacity:1" fill="#151b0b" d="M 117.5,348.5 C 119.027,348.427 120.027,349.094 120.5,350.5C 118.973,350.573 117.973,349.906 117.5,348.5 Z"/></g>
<g><path style="opacity:1" fill="#345473" d="M 350.5,363.5 C 345.859,361.24 342.859,357.573 341.5,352.5C 340.671,349.531 340.505,346.531 341,343.5C 341.785,345.286 342.951,346.786 344.5,348C 349.565,348.602 354.398,349.102 359,349.5C 359.449,355.462 360.115,360.128 361,363.5C 360.044,364.894 358.711,365.561 357,365.5C 354.774,364.967 352.607,364.3 350.5,363.5 Z"/></g>
<g><path style="opacity:1" fill="#25120a" d="M 124.5,354.5 C 125.906,354.973 126.573,355.973 126.5,357.5C 125.094,357.027 124.427,356.027 124.5,354.5 Z"/></g>
<g><path style="opacity:1" fill="#1f6524" d="M 126.5,347.5 C 131.975,352.43 135.975,358.43 138.5,365.5C 138.5,366.5 138.5,367.5 138.5,368.5C 135.276,361.052 131.276,354.052 126.5,347.5 Z"/></g>
<g><path style="opacity:1" fill="#211209" d="M 126.5,357.5 C 127.906,357.973 128.573,358.973 128.5,360.5C 127.094,360.027 126.427,359.027 126.5,357.5 Z"/></g>
<g><path style="opacity:1" fill="#2b8d31" d="M 152.5,351.5 C 153.167,351.5 153.5,351.833 153.5,352.5C 154.038,354.117 154.371,355.784 154.5,357.5C 154.5,357.833 154.5,358.167 154.5,358.5C 154.663,360.857 154.497,363.19 154,365.5C 153.667,365.167 153.333,364.833 153,364.5C 148.633,367.743 144.466,371.077 140.5,374.5C 140.405,372.214 139.738,370.214 138.5,368.5C 138.5,367.5 138.5,366.5 138.5,365.5C 142.103,361.251 146.437,357.584 151.5,354.5C 152.386,353.675 152.719,352.675 152.5,351.5 Z"/></g>
<g><path style="opacity:1" fill="#2d7a30" d="M 154.5,358.5 C 155.833,362.167 155.833,365.833 154.5,369.5C 151.832,369.666 149.498,370.666 147.5,372.5C 145.741,375.242 143.574,377.575 141,379.5C 140.506,377.866 140.34,376.199 140.5,374.5C 144.466,371.077 148.633,367.743 153,364.5C 153.333,364.833 153.667,365.167 154,365.5C 154.497,363.19 154.663,360.857 154.5,358.5 Z"/></g>
<g><path style="opacity:1" fill="#151f0d" d="M 110.5,364.5 C 111.906,364.973 112.573,365.973 112.5,367.5C 111.094,367.027 110.427,366.027 110.5,364.5 Z"/></g>
<g><path style="opacity:1" fill="#23140b" d="M 128.5,360.5 C 129.558,361.6 130.392,362.934 131,364.5C 131.808,368.027 131.641,371.36 130.5,374.5C 130.648,369.681 129.982,365.015 128.5,360.5 Z"/></g>
<g><path style="opacity:1" fill="#19200e" d="M 114.5,369.5 C 116.167,370.5 117.5,371.833 118.5,373.5C 116.167,373.167 114.833,371.833 114.5,369.5 Z"/></g>
<g><path style="opacity:1" fill="#241c0f" d="M 118.5,373.5 C 120.544,374.508 122.544,375.508 124.5,376.5C 123.833,376.5 123.167,376.5 122.5,376.5C 120.596,376.262 119.262,375.262 118.5,373.5 Z"/></g>
<g><path style="opacity:1" fill="#164016" d="M 130.5,374.5 C 128.385,377.517 125.718,378.184 122.5,376.5C 123.167,376.5 123.833,376.5 124.5,376.5C 126.685,376.296 128.685,375.63 130.5,374.5 Z"/></g>
<g><path style="opacity:1" fill="#216024" d="M 138.5,368.5 C 139.738,370.214 140.405,372.214 140.5,374.5C 140.34,376.199 140.506,377.866 141,379.5C 143.574,377.575 145.741,375.242 147.5,372.5C 149.498,370.666 151.832,369.666 154.5,369.5C 153.883,371.229 152.883,372.729 151.5,374C 146.631,376.929 141.965,380.096 137.5,383.5C 138.392,378.562 138.726,373.562 138.5,368.5 Z"/></g>
</svg>
